<svg width="49" height="49" viewBox="0 0 49 49" fill="none" xmlns="http://www.w3.org/2000/svg">
<path fill-rule="evenodd" clip-rule="evenodd" d="M21.2373 0.672947C20.6419 0.871415 19.892 1.55353 19.6146 2.14912C19.3072 2.80931 19.3072 3.83727 19.6147 4.49473C19.8726 5.04607 20.5466 5.698 21.0788 5.911L21.4561 6.06194V6.7404C21.4561 7.26765 21.4195 7.45177 21.292 7.56671C21.2017 7.64799 20.6972 7.82368 20.1706 7.95699C18.43 8.39761 16.9643 9.0067 15.4032 9.93819C14.7731 10.3142 14.4555 10.4522 14.3065 10.4147C14.1912 10.3857 13.8926 10.1545 13.643 9.90088L13.1893 9.43992L13.3525 9.12426C13.4422 8.95073 13.5346 8.53411 13.5577 8.19858C13.7027 6.09353 11.5325 4.61923 9.60064 5.51023C9.14155 5.722 8.7284 6.08153 7.2841 7.52574C5.83989 8.97004 5.48036 9.3832 5.26858 9.84229C4.37759 11.7742 5.85189 13.9444 7.95693 13.7994C8.29246 13.7762 8.70909 13.6839 8.88262 13.5941L9.19827 13.4309L9.65924 13.8847C9.91283 14.1342 10.144 14.4328 10.1731 14.5481C10.2105 14.6965 10.0753 15.0116 9.7107 15.6262C8.72558 17.287 8.16862 18.6198 7.722 20.3852C7.58503 20.9266 7.40634 21.4434 7.32506 21.5337C7.20985 21.6615 7.02572 21.6977 6.49295 21.6977H5.80876L5.62736 21.2879C5.3732 20.7132 4.84061 20.1566 4.27549 19.875C3.88634 19.6811 3.65909 19.6354 3.08628 19.6362C2.17213 19.6373 1.60242 19.8913 0.992954 20.5691C0.293115 21.3475 0.252803 21.5845 0.286834 24.7167L0.315615 27.3696L0.566113 27.8442C0.858892 28.3989 1.44173 28.9559 1.99026 29.205C2.57029 29.4683 3.64409 29.4489 4.25309 29.1641C4.79749 28.9095 5.39683 28.2907 5.65079 27.7211L5.82845 27.3227H6.50279C7.02619 27.3227 7.21022 27.3594 7.32506 27.4868C7.40634 27.5769 7.58203 28.0816 7.71534 28.6082C8.15596 30.3488 8.76505 31.8145 9.69655 33.3756C10.0726 34.0057 10.2106 34.3233 10.1731 34.4723C10.144 34.5876 9.91283 34.8862 9.65924 35.1358L9.19827 35.5895L8.88262 35.4263C8.70909 35.3366 8.29246 35.2442 7.95693 35.2211C5.84814 35.0758 4.37637 37.2423 5.26877 39.1781C5.48045 39.6373 5.83942 40.0499 7.2841 41.4947C9.12861 43.3391 9.52883 43.6266 10.4573 43.7745C11.3219 43.912 12.5312 43.3747 13.0535 42.6211C13.5845 41.855 13.7045 40.9609 13.3958 40.0726L13.2166 39.557L13.7003 39.0648C13.9664 38.7941 14.2663 38.5726 14.3667 38.5726C14.4671 38.5726 14.941 38.8063 15.4198 39.0921C16.9639 40.0135 18.436 40.6244 20.1706 41.0634C20.6972 41.1967 21.2017 41.3724 21.292 41.4537C21.4195 41.5686 21.4561 41.7528 21.4561 42.28V42.9585L21.0788 43.1094C20.5466 43.3224 19.8726 43.9744 19.6147 44.5257C19.446 44.8863 19.3955 45.1566 19.3955 45.6976C19.3955 46.5982 19.6513 47.178 20.3105 47.7705C21.1011 48.4813 21.3573 48.5258 24.469 48.492L27.1279 48.4632L27.5967 48.2134C28.1857 47.8996 28.7023 47.3682 28.9488 46.8226C29.227 46.2068 29.2149 45.1508 28.9225 44.5257C28.6646 43.9744 27.9905 43.3224 27.4583 43.1094L27.081 42.9585V42.28C27.081 41.7528 27.1176 41.5686 27.2451 41.4537C27.3353 41.3724 27.8399 41.1967 28.3665 41.0634C30.1011 40.6244 31.5732 40.0135 33.1174 39.0921C33.5962 38.8063 34.0701 38.5726 34.1705 38.5726C34.2709 38.5726 34.5708 38.7941 34.8368 39.0648L35.3206 39.557L35.1413 40.0726C34.5845 41.6746 35.4506 43.2636 37.1129 43.6894C37.7891 43.8627 38.2498 43.8117 38.9834 43.4823C39.3911 43.2993 39.8528 42.8949 41.253 41.4947C42.6977 40.0499 43.0567 39.6373 43.2684 39.1781C44.1608 37.2423 42.689 35.0758 40.5802 35.2211C40.2447 35.2442 39.828 35.3366 39.6545 35.4263L39.3389 35.5895L38.8779 35.1358C38.6243 34.8862 38.3931 34.5876 38.3641 34.4723C38.3266 34.3233 38.4646 34.0057 38.8406 33.3756C39.7721 31.8145 40.3812 30.3488 40.8218 28.6082C40.9551 28.0816 41.1308 27.5769 41.2121 27.4868C41.3274 27.359 41.5115 27.3227 42.046 27.3227H42.7319L42.9326 27.7893C43.1695 28.3397 43.797 28.9504 44.3996 29.217C44.751 29.3724 44.9679 29.3996 45.588 29.3658C46.0527 29.3405 46.4667 29.2615 46.6568 29.162C47.1576 28.8998 47.7019 28.3541 47.971 27.8442L48.2215 27.3696V24.5102V21.6509L47.9718 21.1821C47.658 20.5931 47.1265 20.0764 46.5809 19.83C46.012 19.573 44.9124 19.5669 44.36 19.8177C43.7873 20.0777 43.1629 20.6961 42.9326 21.2311L42.7319 21.6977H42.046C41.5115 21.6977 41.3274 21.6615 41.2121 21.5337C41.1308 21.4434 40.9551 20.9388 40.8218 20.4122C40.3828 18.6777 39.7719 17.2055 38.8504 15.6614C38.5647 15.1826 38.331 14.7087 38.331 14.6083C38.331 14.5079 38.5576 14.2019 38.8348 13.9283L39.3385 13.4307L39.6508 13.5923C40.3994 13.9794 41.5819 13.8479 42.3904 13.2877C43.1333 12.7728 43.6695 11.5578 43.5328 10.699C43.385 9.77048 43.0975 9.37026 41.253 7.52574C39.8083 6.08106 39.3957 5.7221 38.9365 5.51041C37.0007 4.61801 34.8341 6.08978 34.9794 8.19858C35.0026 8.53411 35.0949 8.95073 35.1846 9.12426L35.3479 9.43992L34.8941 9.90088C34.6446 10.1545 34.346 10.3857 34.2306 10.4147C34.0817 10.4522 33.7641 10.3142 33.134 9.93819C31.5729 9.0067 30.1072 8.39761 28.3665 7.95699C27.8399 7.82368 27.3353 7.64799 27.2451 7.56671C27.1178 7.45187 27.081 7.26784 27.081 6.74443V6.0701L27.4795 5.89244C28.049 5.63847 28.6678 5.03913 28.9225 4.49473C29.23 3.83727 29.23 2.80931 28.9226 2.14912C28.6349 1.53141 27.8974 0.87179 27.2667 0.668166C26.5645 0.441293 21.9213 0.445043 21.2373 0.672947ZM27.0424 2.69531C27.5159 3.24618 27.2311 4.10436 26.538 4.21517C25.9796 4.30452 25.5932 4.51714 25.3933 4.84507C25.2333 5.10738 25.2068 5.31785 25.2069 6.32284C25.2071 7.64471 25.295 8.06771 25.6882 8.63911C26.0629 9.18379 26.5716 9.45267 27.7842 9.74704C29.4612 10.1542 30.8571 10.7453 32.503 11.7452C33.3328 12.2493 33.8492 12.3888 34.5002 12.2847C35.1271 12.1845 35.5205 11.9168 36.4794 10.9382C37.3895 10.0093 37.3935 10.0033 37.3935 9.53638C37.3935 9.15642 37.34 9.00014 37.1122 8.71345C36.7403 8.24546 36.7372 7.8369 37.1027 7.42805C37.3258 7.17821 37.4432 7.12393 37.7607 7.12393C38.1371 7.12393 38.1923 7.16921 39.901 8.87779C41.6096 10.5865 41.6548 10.6417 41.6548 11.0181C41.6548 11.3355 41.6006 11.453 41.3507 11.6761C40.9419 12.0416 40.5333 12.0385 40.0653 11.6666C39.7786 11.4387 39.6224 11.3853 39.2424 11.3853C38.7754 11.3853 38.7694 11.3892 37.8406 12.2994C36.862 13.2582 36.5943 13.6517 36.494 14.2786C36.39 14.9296 36.5295 15.446 37.0336 16.2757C38.0335 17.9217 38.6246 19.3176 39.0317 20.9946C39.3272 22.2117 39.595 22.7158 40.1478 23.0963C40.7367 23.5014 41.2273 23.5925 42.6283 23.557C43.8535 23.526 43.8604 23.5245 44.14 23.2446C44.3399 23.0443 44.4483 22.8148 44.5162 22.4477C44.6355 21.8027 44.9287 21.5102 45.4559 21.5102C45.7061 21.5102 45.903 21.5812 46.0835 21.7365L46.3465 21.9628V24.5102V27.0577L46.0835 27.284C45.903 27.4392 45.7061 27.5102 45.4559 27.5102C44.9287 27.5102 44.6355 27.2177 44.5162 26.5727C44.4483 26.2056 44.3399 25.9761 44.14 25.7758C43.8604 25.4959 43.8535 25.4944 42.6283 25.4635C41.2273 25.4279 40.7367 25.519 40.1478 25.9241C39.595 26.3046 39.3272 26.8088 39.0317 28.0258C38.6246 29.7028 38.0335 31.0987 37.0336 32.7447C36.3784 33.8231 36.2911 34.6089 36.7312 35.4641C36.9943 35.9751 38.6907 37.5982 39.0412 37.6741C39.3834 37.7483 39.7542 37.6226 40.1325 37.3044C40.5165 36.9811 40.9606 36.9957 41.3507 37.3443C41.6006 37.5674 41.6548 37.6849 41.6548 38.0023C41.6548 38.3787 41.6096 38.434 39.901 40.1426C38.1923 41.8512 38.1371 41.8965 37.7607 41.8965C37.4432 41.8965 37.3258 41.8422 37.1027 41.5924C36.7627 41.2119 36.7545 40.8677 37.0743 40.3966C37.6878 39.4924 37.6263 39.2565 36.4677 38.0719C35.5205 37.1036 35.1263 36.8358 34.5002 36.7357C33.8492 36.6316 33.3328 36.7711 32.503 37.2752C30.8571 38.2751 29.4612 38.8662 27.7842 39.2734C26.5716 39.5678 26.0629 39.8366 25.6882 40.3813C25.295 40.9527 25.2071 41.3757 25.2069 42.6976C25.2068 43.7026 25.2333 43.913 25.3933 44.1754C25.5932 44.5033 25.9796 44.7159 26.538 44.8053C27.2312 44.9161 27.516 45.7744 27.0423 46.3251L26.816 46.5882H24.2686H21.7211L21.4948 46.3251C21.0211 45.7744 21.3059 44.9161 21.9992 44.8053C22.5575 44.7159 22.9439 44.5033 23.1439 44.1754C23.3038 43.913 23.3303 43.7026 23.3302 42.6976C23.33 41.3757 23.2421 40.9527 22.8489 40.3813C22.4742 39.8366 21.9655 39.5678 20.753 39.2734C19.076 38.8662 17.6801 38.2751 16.0341 37.2752C15.2043 36.7711 14.6879 36.6316 14.037 36.7357C13.4108 36.8358 13.0166 37.1036 12.0694 38.0719C10.9109 39.2565 10.8493 39.4924 11.4629 40.3966C11.7827 40.8677 11.7744 41.2119 11.4345 41.5924C11.2113 41.8422 11.0939 41.8965 10.7764 41.8965C10.4 41.8965 10.3448 41.8512 8.63615 40.1426C6.92757 38.434 6.88229 38.3787 6.88229 38.0023C6.88229 37.6849 6.93657 37.5674 7.18641 37.3443C7.5765 36.9957 8.02059 36.9811 8.40468 37.3044C8.78296 37.6226 9.15374 37.7483 9.49592 37.6741C9.84645 37.5982 11.5428 35.9751 11.8059 35.4641C12.2461 34.6089 12.1587 33.8231 11.5036 32.7447C10.5036 31.0987 9.91255 29.7028 9.50539 28.0258C9.21102 26.8133 8.94215 26.3046 8.39746 25.9299C7.82606 25.5367 7.40306 25.4487 6.0812 25.4485C5.07621 25.4485 4.86574 25.475 4.60343 25.6349C4.27549 25.8349 4.06287 26.2212 3.97353 26.7796C3.90312 27.22 3.55203 27.5102 3.08947 27.5102C2.9016 27.5102 2.66 27.4486 2.55247 27.3733C2.16876 27.1045 2.13285 26.8245 2.16248 24.3306L2.1906 21.9625L2.45366 21.7364C2.62972 21.585 2.83203 21.5102 3.06556 21.5102C3.65412 21.5102 3.92403 21.8176 4.05968 22.6423C4.09259 22.8424 4.22993 23.0878 4.40074 23.2516C4.68283 23.5221 4.70346 23.5263 5.91311 23.557C6.61651 23.5749 7.31644 23.5436 7.55437 23.4837C8.53349 23.2372 9.15936 22.5155 9.41661 21.3365C9.78964 19.627 10.4707 17.9753 11.5035 16.2757C12.0077 15.446 12.1472 14.9296 12.0431 14.2786C11.9429 13.6517 11.6751 13.2582 10.6966 12.2994C9.7677 11.3892 9.7617 11.3853 9.29474 11.3853C8.91477 11.3853 8.75849 11.4387 8.47181 11.6666C8.00381 12.0385 7.59525 12.0416 7.18641 11.6761C6.93657 11.453 6.88229 11.3355 6.88229 11.0181C6.88229 10.6417 6.92757 10.5865 8.63615 8.87779C10.3448 7.16921 10.4 7.12393 10.7764 7.12393C11.0939 7.12393 11.2113 7.17821 11.4345 7.42805C11.7999 7.8369 11.7968 8.24546 11.4249 8.71345C11.1971 9.00014 11.1437 9.15642 11.1437 9.53638C11.1437 10.0033 11.1476 10.0093 12.0577 10.9382C13.0166 11.9168 13.4101 12.1845 14.037 12.2847C14.6879 12.3888 15.2043 12.2493 16.0341 11.7451C17.7337 10.7124 19.3854 10.0313 21.0949 9.65826C22.246 9.4071 22.9679 8.79895 23.2283 7.86118C23.2842 7.65962 23.3301 6.96737 23.3302 6.32284C23.3303 5.31785 23.3038 5.10738 23.1439 4.84507C22.9439 4.51714 22.5575 4.30452 21.9992 4.21517C21.1551 4.08017 20.9871 2.80124 21.7708 2.47603C21.8813 2.43018 23.0617 2.40159 24.394 2.41247L26.8163 2.43225L27.0424 2.69531ZM19.3848 12.9072C16.606 13.882 15.8196 17.4335 17.9387 19.4378C19.9282 21.3193 23.0403 20.7297 24.1999 18.2516C24.4401 17.7383 24.5013 17.4739 24.5329 16.8113C24.5931 15.5538 24.2196 14.6161 23.3255 13.7798C22.2679 12.7905 20.7044 12.4443 19.3848 12.9072ZM21.3888 14.6992C22.9117 15.3374 23.1456 17.3836 21.7998 18.294C20.531 19.1522 18.9022 18.4586 18.6119 16.9367C18.4583 16.1307 19.0178 15.1096 19.8102 14.7496C20.2604 14.5451 20.9673 14.5226 21.3888 14.6992ZM29.1538 15.8286C28.8731 15.9842 28.6825 16.3206 28.6781 16.6681C28.6734 17.0507 29.2124 17.5728 29.6123 17.5728C29.9921 17.5728 30.5498 17.0511 30.5498 16.6959C30.5498 15.9419 29.7953 15.4731 29.1538 15.8286ZM30.7301 21.6905C30.176 22.2446 30.4756 23.1139 31.2661 23.2457C32.2766 23.4143 33.0189 23.8021 33.6767 24.5053C35.0687 25.9934 35.0553 28.3056 33.646 29.7956C32.2315 31.2912 30.0694 31.4634 28.4092 30.2127C27.8456 29.7881 27.2559 28.9454 27.0975 28.3381C27.0393 28.1148 26.9463 27.7508 26.8909 27.5293C26.765 27.0258 26.3512 26.7272 25.8774 26.7981C25.1932 26.9004 24.9687 27.377 25.1626 28.3154C25.3818 29.3765 25.9679 30.4483 26.7539 31.2257C29.01 33.4572 32.5371 33.4896 34.8183 31.2998C37.9528 28.2908 36.7213 22.9545 32.5914 21.6498C31.5701 21.3272 31.0826 21.3379 30.7301 21.6905ZM26.7525 23.049C26.1265 23.675 26.547 24.6563 27.4304 24.6312C27.8947 24.618 28.2998 24.1863 28.2998 23.7046C28.2998 22.9464 27.285 22.5164 26.7525 23.049ZM13.2788 23.7142C12.743 24.0147 12.6583 24.7268 13.1052 25.1737C13.7668 25.8353 14.903 25.1564 14.6116 24.2737C14.5566 24.1069 14.434 23.9002 14.3392 23.8144C14.0933 23.5918 13.5829 23.5437 13.2788 23.7142ZM17.137 27.1637C16.1954 27.4307 15.2633 28.2187 14.8619 29.0874C14.6969 29.4442 14.6593 29.7003 14.6593 30.4633C14.6593 31.2973 14.6879 31.459 14.9182 31.9281C15.4019 32.9131 16.4952 33.6967 17.5827 33.8379C18.1476 33.9113 18.9941 33.7598 19.5241 33.4906C20.0874 33.2044 20.7386 32.5398 21.0412 31.9425C21.29 31.451 21.3155 31.3138 21.3155 30.4633C21.3155 29.6293 21.2869 29.4676 21.0565 28.9985C20.7394 28.3526 20.0273 27.6691 19.3476 27.3578C18.729 27.0747 17.7532 26.9889 17.137 27.1637ZM18.893 29.2496C19.3113 29.5687 19.4874 29.9366 19.4874 30.4916C19.4874 30.8121 19.4233 31.0475 19.2757 31.2697C19.0425 31.6206 18.3647 32.0102 17.9874 32.0102C17.61 32.0102 16.9322 31.6206 16.6991 31.2697C16.4472 30.8907 16.4134 30.1751 16.6279 29.7604C16.781 29.4643 17.2675 29.0589 17.5655 28.9791C17.938 28.8791 18.5784 29.0097 18.893 29.2496ZM23.8101 34.8598C22.9974 35.3102 23.3374 36.6039 24.2686 36.6039C24.7436 36.6039 25.2061 36.1459 25.2061 35.6755C25.2061 34.9716 24.4282 34.5171 23.8101 34.8598Z" fill="url(#paint0_linear_22_643)"/>
<defs>
<linearGradient id="paint0_linear_22_643" x1="0.278503" y1="0.5" x2="51.2976" y2="4.02898" gradientUnits="userSpaceOnUse">
<stop stop-color="#28B945"/>
<stop offset="1" stop-color="#005611"/>
</linearGradient>
</defs>
</svg>
