<svg width="49" height="49" viewBox="0 0 49 49" fill="none" xmlns="http://www.w3.org/2000/svg">
<path fill-rule="evenodd" clip-rule="evenodd" d="M24.3907 5.77155C24.2732 5.83741 21.5123 9.09302 18.2555 13.0061C11.8579 20.6929 12.0569 20.4155 12.5721 20.9307C12.8014 21.1601 12.8584 21.1688 14.1241 21.1688H15.438V27.1387V33.1087L15.6761 33.3467C15.9122 33.5829 15.9292 33.5848 17.766 33.5848C19.6028 33.5848 19.6198 33.5829 19.8559 33.3467C20.006 33.1967 20.094 32.9978 20.094 32.8088C20.094 32.6199 20.006 32.421 19.8559 32.271C19.6265 32.0416 19.5696 32.0328 18.3039 32.0328H16.99V26.6008V21.1688H17.5104C18.2101 21.1688 18.542 20.9192 18.542 20.3928C18.542 20.1045 18.4836 19.9729 18.2864 19.8179C18.0508 19.6326 17.9031 19.6168 16.3943 19.6168H14.7578L19.7096 13.6756C22.4331 10.408 24.7013 7.73434 24.75 7.73434C24.7987 7.73434 27.0668 10.408 29.7904 13.6756L34.7422 19.6168H28.0442H21.3462L21.1081 19.855C20.7931 20.1699 20.7931 20.6157 21.1081 20.9307L21.3462 21.1688H26.9281H32.51V26.6008V32.0328H30.182H27.854V28.391V24.749L27.6159 24.511L27.3778 24.2728H24.75H22.1222L21.8841 24.511L21.646 24.749V28.9288V33.1087L21.8841 33.3467L22.1222 33.5848H27.854H33.5858L33.8239 33.3467L34.062 33.1087V27.1387V21.1688H35.3759C36.6416 21.1688 36.6985 21.1601 36.9279 20.9307C37.4431 20.4155 37.6421 20.6929 31.2445 13.0061C27.9877 9.09302 25.2267 5.83741 25.1093 5.77155C24.9917 5.70559 24.83 5.65166 24.75 5.65166C24.67 5.65166 24.5083 5.70559 24.3907 5.77155ZM6.12599 8.87962C5.64992 9.02968 4.83793 9.87048 4.69194 10.3646C4.60193 10.6692 4.57399 13.7813 4.57399 23.4882V36.2127L4.81213 36.4507C5.12709 36.7658 5.5729 36.7658 5.88786 36.4507L6.12599 36.2127V23.4968V10.781L6.36413 10.543L6.60216 10.3048H11.558H16.5138L16.7519 10.0667C17.0669 9.75175 17.0669 9.30594 16.7519 8.99098L16.5138 8.75284L11.4896 8.76274C8.12361 8.76933 6.35346 8.80794 6.12599 8.87962ZM32.7481 8.99098C32.598 9.14104 32.51 9.33989 32.51 9.52884C32.51 9.7178 32.598 9.91665 32.7481 10.0667L32.9862 10.3048H37.942H42.8978L43.1359 10.543L43.374 10.781V23.4968V36.2127L43.6121 36.4507C43.9271 36.7658 44.3729 36.7658 44.6879 36.4507L44.926 36.2127V23.4882C44.926 13.7813 44.8981 10.6692 44.808 10.3646C44.6506 9.83178 43.8471 9.02823 43.3142 8.8708C43.0235 8.78495 41.5648 8.75284 37.9506 8.75284H32.9862L32.7481 8.99098ZM24.2121 13.647C23.7309 14.1281 24.0719 14.9608 24.75 14.9608C25.1488 14.9608 25.526 14.5836 25.526 14.1848C25.526 13.7861 25.1488 13.4088 24.75 13.4088C24.561 13.4088 24.3622 13.4968 24.2121 13.647ZM26.302 28.9288V32.0328H24.75H23.198V28.9288V25.8248H24.75H26.302V28.9288ZM1.69484 38.4922C1.46019 38.7269 1.44749 38.7854 1.50297 39.3798C1.6283 40.7212 2.43349 41.8674 3.68547 42.4861L4.4184 42.8483H24.75H45.0816L45.8145 42.4861C47.0665 41.8674 47.8717 40.7212 47.997 39.3798C48.0525 38.7854 48.0398 38.7269 47.8051 38.4922L47.5538 38.2408H38.718H29.8822L29.6441 38.479C29.3291 38.7939 29.3291 39.2398 29.6441 39.5547L29.8822 39.7928H38.0831C45.46 39.7928 46.284 39.8081 46.284 39.9447C46.284 40.2089 45.3001 41.0987 44.8662 41.2269C44.2858 41.3984 5.21419 41.3984 4.63374 41.2269C4.19986 41.0987 3.21599 40.2089 3.21599 39.9447C3.21599 39.8081 4.04001 39.7928 11.4169 39.7928H19.6178L19.8559 39.5547C20.1709 39.2398 20.1709 38.7939 19.8559 38.479L19.6178 38.2408H10.782H1.94616L1.69484 38.4922Z" fill="url(#paint0_linear_7_45)"/>
<defs>
<linearGradient id="paint0_linear_7_45" x1="1.4756" y1="5.65166" x2="50.877" y2="9.93296" gradientUnits="userSpaceOnUse">
<stop stop-color="#28B945"/>
<stop offset="1" stop-color="#005611"/>
</linearGradient>
</defs>
</svg>
