<svg width="49" height="49" viewBox="0 0 49 49" fill="none" xmlns="http://www.w3.org/2000/svg">
<path fill-rule="evenodd" clip-rule="evenodd" d="M8.6093 2.46863L8.37362 2.70421V6.07295V9.44168L8.6093 9.67727C8.92101 9.98908 9.36223 9.98908 9.67394 9.67727C9.90098 9.45032 9.90962 9.39397 9.90962 8.14127V6.84095H11.2099C12.4626 6.84095 12.519 6.83231 12.7459 6.60527C13.0577 6.29356 13.0577 5.85234 12.7459 5.54063C12.519 5.31359 12.4626 5.30495 11.2099 5.30495H9.90962V4.00463C9.90962 2.75192 9.90098 2.69557 9.67394 2.46863C9.52543 2.32002 9.32863 2.23295 9.14162 2.23295C8.95461 2.23295 8.75781 2.32002 8.6093 2.46863ZM14.7533 2.46863L14.5176 2.70421V6.07295V9.44168L14.7533 9.67727C15.065 9.98908 15.5062 9.98908 15.8179 9.67727C16.045 9.45032 16.0536 9.39397 16.0536 8.14127V6.84095H17.3539C18.6066 6.84095 18.663 6.83231 18.8899 6.60527C19.2017 6.29356 19.2017 5.85234 18.8899 5.54063C18.663 5.31359 18.6066 5.30495 17.3539 5.30495H16.0536V4.00463C16.0536 2.75192 16.045 2.69557 15.8179 2.46863C15.6694 2.32002 15.4726 2.23295 15.2856 2.23295C15.0986 2.23295 14.9018 2.32002 14.7533 2.46863ZM20.8973 2.46863L20.6616 2.70421V6.07295V9.44168L20.8973 9.67727C21.209 9.98908 21.6502 9.98908 21.9619 9.67727C22.189 9.45032 22.1976 9.39397 22.1976 8.14127V6.84095H23.4979C24.7506 6.84095 24.807 6.83231 25.0339 6.60527C25.3458 6.29356 25.3458 5.85234 25.0339 5.54063C24.807 5.31359 24.7506 5.30495 23.4979 5.30495H22.1976V4.00463C22.1976 2.75192 22.189 2.69557 21.9619 2.46863C21.8134 2.32002 21.6166 2.23295 21.4296 2.23295C21.2426 2.23295 21.0458 2.32002 20.8973 2.46863ZM27.0413 2.46863L26.8056 2.70421V6.07295V9.44168L27.0413 9.67727C27.353 9.98908 27.7942 9.98908 28.1059 9.67727C28.333 9.45032 28.3416 9.39397 28.3416 8.14127V6.84095H29.6419C30.8946 6.84095 30.951 6.83231 31.1779 6.60527C31.4898 6.29356 31.4898 5.85234 31.1779 5.54063C30.951 5.31359 30.8946 5.30495 29.6419 5.30495H28.3416V4.00463C28.3416 2.75192 28.333 2.69557 28.1059 2.46863C27.9574 2.32002 27.7606 2.23295 27.5736 2.23295C27.3866 2.23295 27.1898 2.32002 27.0413 2.46863ZM33.1853 2.46863L32.9496 2.70421V6.07295V9.44168L33.1853 9.67727C33.497 9.98908 33.9382 9.98908 34.2499 9.67727C34.477 9.45032 34.4856 9.39397 34.4856 8.14127V6.84095H35.7859C37.0386 6.84095 37.095 6.83231 37.3219 6.60527C37.6338 6.29356 37.6338 5.85234 37.3219 5.54063C37.095 5.31359 37.0386 5.30495 35.7859 5.30495H34.4856V4.00463C34.4856 2.75192 34.477 2.69557 34.2499 2.46863C34.1014 2.32002 33.9046 2.23295 33.7176 2.23295C33.5306 2.23295 33.3338 2.32002 33.1853 2.46863ZM39.3293 2.46863L39.0936 2.70421V6.07295V9.44168L39.3293 9.67727C39.641 9.98908 40.0822 9.98908 40.3939 9.67727C40.621 9.45032 40.6296 9.39397 40.6296 8.14127V6.84095H41.9299C43.1826 6.84095 43.239 6.84959 43.4659 7.07663L43.7016 7.31221V10.1486V12.9849H23.7336H3.76562V10.1486V7.31221L4.0013 7.07663C4.22316 6.85477 4.29919 6.84095 5.30162 6.84095C6.30405 6.84095 6.38009 6.82712 6.60194 6.60527C6.91375 6.29356 6.91375 5.85234 6.60194 5.54063C6.37989 5.31848 6.30463 5.30495 5.29308 5.30495C4.70287 5.30495 4.0421 5.35746 3.82476 5.42168C3.29743 5.57749 2.50217 6.37276 2.34636 6.90008C2.25698 7.20248 2.22962 10.6156 2.22962 21.4428V35.5905L6.28687 39.6477L10.3441 43.7049H17.5713H24.7984L25.0339 43.4693C25.3458 43.1576 25.3458 42.7163 25.0339 42.4046L24.7984 42.1689H18.1219H11.4456V38.5646V34.9602L11.2099 34.7246L10.9744 34.4889H8.75762H6.54089L6.3053 34.7246C5.99349 35.0363 5.99349 35.4776 6.3053 35.7893C6.53753 36.0216 6.56489 36.0249 8.2253 36.0249H9.90962V38.5444V41.0638L6.83762 37.9929L3.76562 34.9221V24.7215V14.5209H23.7336H43.7016V20.4293V26.3377L43.9373 26.5733C44.249 26.8851 44.6902 26.8851 45.0019 26.5733L45.2376 26.3377V16.8164C45.2376 9.62159 45.2091 7.19864 45.1209 6.90008C44.9651 6.37276 44.1698 5.57749 43.6425 5.42168C43.417 5.35506 42.6856 5.30495 41.9385 5.30495H40.6296V4.00463C40.6296 2.75192 40.621 2.69557 40.3939 2.46863C40.2454 2.32002 40.0486 2.23295 39.8616 2.23295C39.6746 2.23295 39.4778 2.32002 39.3293 2.46863ZM13.8888 17.728C12.9203 18.1498 12.6915 19.4374 13.4503 20.1963C14.073 20.8189 14.9622 20.8189 15.5849 20.1963C16.7764 19.0047 15.436 17.0541 13.8888 17.728ZM20.0328 17.728C19.0643 18.1498 18.8355 19.4374 19.5943 20.1963C20.217 20.8189 21.1062 20.8189 21.729 20.1963C22.9204 19.0047 21.58 17.0541 20.0328 17.728ZM26.1768 17.728C25.2083 18.1498 24.9795 19.4374 25.7383 20.1963C26.361 20.8189 27.2502 20.8189 27.873 20.1963C29.0644 19.0047 27.724 17.0541 26.1768 17.728ZM32.3208 17.728C31.3523 18.1498 31.1235 19.4374 31.8823 20.1963C32.505 20.8189 33.3942 20.8189 34.017 20.1963C35.2084 19.0047 33.868 17.0541 32.3208 17.728ZM38.4648 17.728C37.4963 18.1498 37.2675 19.4374 38.0263 20.1963C38.649 20.8189 39.5382 20.8189 40.1609 20.1963C41.3524 19.0047 40.012 17.0541 38.4648 17.728ZM7.74482 23.872C6.77628 24.2938 6.54751 25.5814 7.30629 26.3403C8.38485 27.4188 10.1523 26.4528 9.86853 24.9397C9.69871 24.0348 8.61823 23.4916 7.74482 23.872ZM13.8888 23.872C12.9203 24.2938 12.6915 25.5814 13.4503 26.3403C14.5289 27.4188 16.2963 26.4528 16.0125 24.9397C15.8427 24.0348 14.7622 23.4916 13.8888 23.872ZM20.0328 23.872C19.0643 24.2938 18.8355 25.5814 19.5943 26.3403C20.6729 27.4188 22.4403 26.4528 22.1565 24.9397C21.9867 24.0348 20.9062 23.4916 20.0328 23.872ZM26.1768 23.872C25.2083 24.2938 24.9795 25.5814 25.7383 26.3403C26.8169 27.4188 28.5843 26.4528 28.3005 24.9397C28.1307 24.0348 27.0502 23.4916 26.1768 23.872ZM34.2936 25.4206C30.9223 25.9536 27.96 28.1541 26.3849 31.2956C24.3442 35.3654 25.1747 40.3437 28.4388 43.6078C31.7353 46.9042 36.5976 47.6988 40.7736 45.6233C42.9676 44.5329 44.5296 42.9709 45.62 40.7769C46.6144 38.7762 46.9598 36.7557 46.673 34.6159C46.4989 33.3167 46.3462 33.0489 45.7798 33.0489C45.4142 33.0489 45.243 33.1441 45.0956 33.429C44.9791 33.6544 44.9811 33.8057 45.1104 34.5454C45.285 35.5441 45.2349 37.1559 44.9993 38.1246C44.5912 39.8018 43.8063 41.1907 42.5496 42.4597C41.2343 43.788 39.857 44.5751 38.0725 45.0183C37.1309 45.2522 34.9703 45.2522 34.0056 45.0183C30.5125 44.1716 27.9008 41.5733 27.0274 38.0758C26.7994 37.1627 26.7994 34.8872 27.0274 33.9741C27.4652 32.2206 28.2594 30.8176 29.5368 29.5401C30.8143 28.2627 32.2172 27.4686 33.9708 27.0307C34.8799 26.8037 37.1597 26.8027 38.0649 27.0289C39.1697 27.3051 40.2435 27.784 41.2007 28.4277C42.2479 29.1318 42.5498 29.1957 42.9008 28.7876C43.3478 28.268 43.1403 27.8568 42.0738 27.1478C39.7465 25.6006 37.0049 24.992 34.2936 25.4206ZM7.74482 30.016C6.77628 30.4378 6.54751 31.7254 7.30629 32.4843C8.38485 33.5628 10.1523 32.5968 9.86853 31.0837C9.69871 30.1788 8.61823 29.6356 7.74482 30.016ZM13.8888 30.016C12.9203 30.4378 12.6915 31.7254 13.4503 32.4843C14.5289 33.5628 16.2963 32.5968 16.0125 31.0837C15.8427 30.1788 14.7622 29.6356 13.8888 30.016ZM20.0328 30.016C19.0643 30.4378 18.8355 31.7254 19.5943 32.4843C20.6729 33.5628 22.4403 32.5968 22.1565 31.0837C21.9867 30.1788 20.9062 29.6356 20.0328 30.016ZM43.9071 30.1449C43.7543 30.2901 42.4267 31.7265 40.9569 33.3369C39.4869 34.9473 37.7772 36.8118 37.1573 37.48L36.0303 38.6951L34.3396 36.6479C33.4097 35.5219 32.5835 34.5754 32.5034 34.5448C32.201 34.4288 31.8769 34.497 31.6493 34.7246C31.1678 35.2061 31.2304 35.3186 33.4935 38.0401C35.6181 40.5952 35.7955 40.757 36.2736 40.5748C36.3974 40.5275 37.8233 39.0417 39.4423 37.2729C41.0613 35.5041 43.0276 33.3559 43.8118 32.499C45.3803 30.7852 45.477 30.5915 45.0019 30.1166C44.6812 29.7958 44.2628 29.8066 43.9071 30.1449ZM13.8888 36.16C12.9203 36.5818 12.6915 37.8694 13.4503 38.6283C14.5289 39.7068 16.2963 38.7408 16.0125 37.2277C15.8427 36.3228 14.7622 35.7796 13.8888 36.16ZM20.0328 36.16C19.0643 36.5818 18.8355 37.8694 19.5943 38.6283C20.6729 39.7068 22.4403 38.7408 22.1565 37.2277C21.9867 36.3228 20.9062 35.7796 20.0328 36.16Z" fill="url(#paint0_linear_7_73)"/>
<defs>
<linearGradient id="paint0_linear_7_73" x1="2.22962" y1="2.23295" x2="49.6275" y2="5.51584" gradientUnits="userSpaceOnUse">
<stop stop-color="#28B945"/>
<stop offset="1" stop-color="#005611"/>
</linearGradient>
</defs>
</svg>
