<svg width="49" height="49" viewBox="0 0 49 49" fill="none" xmlns="http://www.w3.org/2000/svg">
<path fill-rule="evenodd" clip-rule="evenodd" d="M38.7227 1.74071C37.3184 2.85671 31.4979 3.73549 22.494 4.19101C19.0227 4.36669 12.7735 4.52615 9.31368 4.52749L6.78926 4.52845L6.55368 4.76413C6.24187 5.07585 6.24187 5.51706 6.55368 5.82877L6.78926 6.06445L9.36168 6.0633C14.5419 6.061 21.3943 5.84337 26.094 5.53194C31.5231 5.17204 35.8844 4.52673 38.07 3.75988L38.574 3.58295V4.58807C38.574 5.52724 38.5895 5.60865 38.8097 5.82877C39.1214 6.14058 39.5626 6.14058 39.8743 5.82877C40.1081 5.59511 40.11 5.57831 40.11 3.76045C40.11 1.9426 40.1081 1.9258 39.8743 1.69213C39.5542 1.37188 39.1662 1.3882 38.7227 1.74071ZM6.55368 7.83613L6.318 8.07172V27.5685V47.0652L6.55368 47.3008L6.78926 47.5365H24.75H42.7107L42.9463 47.3008L43.182 47.0652V27.5685V8.07172L42.9463 7.83613L42.7107 7.60045H24.75H6.78926L6.55368 7.83613ZM41.646 27.5685V46.0005H24.75H7.854V27.5685V9.13645H24.75H41.646V27.5685ZM11.1617 12.4441L10.926 12.6797V16.0485V19.4172L11.1617 19.6528C11.4477 19.9389 11.8718 19.9605 12.1873 19.7051C12.4116 19.5237 12.4145 19.4973 12.462 17.2L12.51 14.8782L14.1634 17.3241C15.0727 18.6693 15.8862 19.7966 15.9712 19.8291C16.2824 19.9486 16.6044 19.8828 16.8343 19.6528L17.07 19.4172V16.0485V12.6797L16.8343 12.4441C16.5484 12.1581 16.1243 12.1365 15.8087 12.3918C15.5868 12.5712 15.5809 12.6171 15.534 14.5587L15.486 16.5423L14.094 14.4765C13.3076 13.3094 12.6061 12.3667 12.4815 12.3095C12.3602 12.254 12.0667 12.2085 11.8291 12.2085C11.4986 12.2085 11.342 12.2637 11.1617 12.4441ZM18.8417 12.4441L18.606 12.6797V16.0485V19.4172L18.8417 19.6528C19.0753 19.8865 19.0921 19.8885 20.91 19.8885C22.7279 19.8885 22.7447 19.8865 22.9783 19.6528C23.1269 19.5043 23.214 19.3075 23.214 19.1205C23.214 18.9334 23.1269 18.7366 22.9783 18.5881C22.7514 18.3611 22.695 18.3525 21.4423 18.3525H20.142V17.5845V16.8165H21.0583C21.9033 16.8165 21.9931 16.7981 22.2103 16.5808C22.3589 16.4323 22.446 16.2355 22.446 16.0485C22.446 15.8614 22.3589 15.6646 22.2103 15.5161C21.9931 15.2988 21.9033 15.2805 21.0583 15.2805H20.142V14.5125V13.7445H21.4423C22.695 13.7445 22.7514 13.7358 22.9783 13.5088C23.1269 13.3603 23.214 13.1635 23.214 12.9765C23.214 12.7894 23.1269 12.5926 22.9783 12.4441C22.7447 12.2104 22.7279 12.2085 20.91 12.2085C19.0921 12.2085 19.0753 12.2104 18.8417 12.4441ZM24.6848 12.3226C24.2126 12.5509 24.2219 12.7005 24.931 16.2364C25.6472 19.8081 25.6768 19.8885 26.2752 19.8885C26.7746 19.8885 26.8937 19.6887 27.7295 17.4479C28.1743 16.2558 28.5606 15.281 28.5881 15.2817C28.6155 15.2824 28.9999 16.2558 29.4424 17.4449C30.277 19.6883 30.3968 19.8885 30.9048 19.8885C31.5032 19.8885 31.5329 19.8079 32.2478 16.2399C32.612 14.4225 32.8849 12.8568 32.8545 12.7607C32.763 12.4725 32.4116 12.2085 32.1195 12.2085C31.5814 12.2085 31.4382 12.4954 31.0884 14.2747C30.9121 15.171 30.7391 15.9861 30.7038 16.0861C30.6591 16.2128 30.4299 15.7044 29.9467 14.4061C29.2317 12.4853 29.062 12.2085 28.6008 12.2085C28.1122 12.2085 27.9802 12.4189 27.2464 14.3673C26.7675 15.6388 26.5154 16.1976 26.4738 16.0797C26.4399 15.9833 26.2679 15.171 26.0916 14.2747C25.8357 12.9729 25.7273 12.601 25.5529 12.4267C25.3201 12.1939 25.0244 12.1584 24.6848 12.3226ZM35.395 12.3409C34.3523 12.7135 33.8402 13.6284 34.0712 14.7058C34.2238 15.4171 34.7978 16.0008 35.9027 16.5683C37.0261 17.1452 37.038 17.1555 37.038 17.5526C37.038 17.9828 36.6807 18.3525 36.2649 18.3525C35.8243 18.3525 35.303 18.0712 35.1272 17.7385C34.7345 16.9952 34.2432 16.7483 33.7893 17.0661C33.2161 17.4676 33.4265 18.3036 34.3019 19.1037C35.3647 20.075 36.78 20.1532 37.7556 19.2945C38.3303 18.7887 38.574 18.2515 38.574 17.4906C38.574 17.0203 38.5214 16.7919 38.3434 16.4889C38.0648 16.0149 37.7855 15.8012 36.7907 15.3008C35.578 14.691 35.2951 14.3353 35.7003 13.9301C35.8712 13.7592 35.9856 13.7307 36.3392 13.7706C36.5761 13.7973 36.8933 13.9103 37.0441 14.0218C37.5791 14.4173 38.2263 14.1946 38.3463 13.5736C38.4003 13.2938 38.3629 13.2165 38.0104 12.8812C37.3764 12.2781 36.2322 12.0417 35.395 12.3409ZM11.1617 23.1961C11.0131 23.3446 10.926 23.5414 10.926 23.7285C10.926 23.9155 11.0131 24.1123 11.1617 24.2608L11.3973 24.4965H17.07H22.7427L22.9783 24.2608C23.2901 23.9491 23.2901 23.5078 22.9783 23.1961L22.7427 22.9605H17.07H11.3973L11.1617 23.1961ZM26.5217 23.1961C26.3731 23.3446 26.286 23.5414 26.286 23.7285C26.286 23.9155 26.3731 24.1123 26.5217 24.2608L26.7573 24.4965H32.43H38.1027L38.3383 24.2608C38.4869 24.1123 38.574 23.9155 38.574 23.7285C38.574 23.5414 38.4869 23.3446 38.3383 23.1961L38.1027 22.9605H32.43H26.7573L26.5217 23.1961ZM11.1617 26.2681C11.0131 26.4166 10.926 26.6134 10.926 26.8005C10.926 26.9875 11.0131 27.1843 11.1617 27.3328L11.3973 27.5685H17.07H22.7427L22.9783 27.3328C23.2901 27.0211 23.2901 26.5798 22.9783 26.2681L22.7427 26.0325H17.07H11.3973L11.1617 26.2681ZM26.5217 26.2681C26.3731 26.4166 26.286 26.6134 26.286 26.8005C26.286 26.9875 26.3731 27.1843 26.5217 27.3328L26.7573 27.5685H32.43H38.1027L38.3383 27.3328C38.4869 27.1843 38.574 26.9875 38.574 26.8005C38.574 26.6134 38.4869 26.4166 38.3383 26.2681L38.1027 26.0325H32.43H26.7573L26.5217 26.2681ZM11.1617 29.3401C11.0131 29.4886 10.926 29.6854 10.926 29.8725C10.926 30.0595 11.0131 30.2563 11.1617 30.4048L11.3973 30.6405H17.07H22.7427L22.9783 30.4048C23.2901 30.0931 23.2901 29.6518 22.9783 29.3401L22.7427 29.1045H17.07H11.3973L11.1617 29.3401ZM26.5217 29.3401C26.3731 29.4886 26.286 29.6854 26.286 29.8725C26.286 30.0595 26.3731 30.2563 26.5217 30.4048L26.7573 30.6405H32.43H38.1027L38.3383 30.4048C38.4869 30.2563 38.574 30.0595 38.574 29.8725C38.574 29.6854 38.4869 29.4886 38.3383 29.3401L38.1027 29.1045H32.43H26.7573L26.5217 29.3401ZM11.1617 32.4121C11.0131 32.5606 10.926 32.7574 10.926 32.9445C10.926 33.1315 11.0131 33.3283 11.1617 33.4768L11.3973 33.7125H17.07H22.7427L22.9783 33.4768C23.2901 33.1651 23.2901 32.7238 22.9783 32.4121L22.7427 32.1765H17.07H11.3973L11.1617 32.4121ZM26.5217 32.4121C26.3731 32.5606 26.286 32.7574 26.286 32.9445C26.286 33.1315 26.3731 33.3283 26.5217 33.4768L26.7573 33.7125H32.43H38.1027L38.3383 33.4768C38.4869 33.3283 38.574 33.1315 38.574 32.9445C38.574 32.7574 38.4869 32.5606 38.3383 32.4121L38.1027 32.1765H32.43H26.7573L26.5217 32.4121ZM11.1617 35.4841C11.0131 35.6326 10.926 35.8294 10.926 36.0165C10.926 36.2035 11.0131 36.4003 11.1617 36.5488L11.3973 36.7845H17.07H22.7427L22.9783 36.5488C23.2901 36.2371 23.2901 35.7958 22.9783 35.4841L22.7427 35.2485H17.07H11.3973L11.1617 35.4841ZM26.5217 35.4841C26.3731 35.6326 26.286 35.8294 26.286 36.0165C26.286 36.2035 26.3731 36.4003 26.5217 36.5488L26.7573 36.7845H32.43H38.1027L38.3383 36.5488C38.4869 36.4003 38.574 36.2035 38.574 36.0165C38.574 35.8294 38.4869 35.6326 38.3383 35.4841L38.1027 35.2485H32.43H26.7573L26.5217 35.4841ZM11.1617 38.5561C11.0131 38.7046 10.926 38.9014 10.926 39.0885C10.926 39.2755 11.0131 39.4723 11.1617 39.6208L11.3973 39.8565H17.07H22.7427L22.9783 39.6208C23.2901 39.3091 23.2901 38.8678 22.9783 38.5561L22.7427 38.3205H17.07H11.3973L11.1617 38.5561ZM26.5217 38.5561C26.3731 38.7046 26.286 38.9014 26.286 39.0885C26.286 39.2755 26.3731 39.4723 26.5217 39.6208L26.7573 39.8565H32.43H38.1027L38.3383 39.6208C38.4869 39.4723 38.574 39.2755 38.574 39.0885C38.574 38.9014 38.4869 38.7046 38.3383 38.5561L38.1027 38.3205H32.43H26.7573L26.5217 38.5561ZM11.1617 41.6281C11.0131 41.7766 10.926 41.9734 10.926 42.1605C10.926 42.3475 11.0131 42.5443 11.1617 42.6928L11.3973 42.9285H17.07H22.7427L22.9783 42.6928C23.2901 42.3811 23.2901 41.9398 22.9783 41.6281L22.7427 41.3925H17.07H11.3973L11.1617 41.6281ZM26.5217 41.6281C26.3731 41.7766 26.286 41.9734 26.286 42.1605C26.286 42.3475 26.3731 42.5443 26.5217 42.6928L26.7573 42.9285H32.43H38.1027L38.3383 42.6928C38.4869 42.5443 38.574 42.3475 38.574 42.1605C38.574 41.9734 38.4869 41.7766 38.3383 41.6281L38.1027 41.3925H32.43H26.7573L26.5217 41.6281Z" fill="url(#paint0_linear_7_81)"/>
<defs>
<linearGradient id="paint0_linear_7_81" x1="6.318" y1="1.46355" x2="45.6143" y2="3.64096" gradientUnits="userSpaceOnUse">
<stop stop-color="#28B945"/>
<stop offset="1" stop-color="#005611"/>
</linearGradient>
</defs>
</svg>
