<svg width="49" height="48" viewBox="0 0 49 48" fill="none" xmlns="http://www.w3.org/2000/svg">
<path fill-rule="evenodd" clip-rule="evenodd" d="M23.1048 0.147198C22.1502 0.487979 21.4956 1.24464 21.2844 2.25132C21.1414 2.93326 21.282 3.67754 21.6727 4.30604L21.9481 4.74901L21.648 4.93445C21.483 5.03645 21.2465 5.22798 21.1223 5.36017L20.8966 5.60035H15.72H10.5434L10.3925 5.2231C10.1795 4.69089 9.52753 4.01682 8.97619 3.75892C8.31872 3.45142 7.29075 3.45142 6.63056 3.75882C5.54784 4.26301 4.91606 5.40601 5.02294 6.6676C5.20481 8.81626 6.45609 10.3135 8.71359 11.0837C8.784 11.1077 7.17431 14.4449 4.413 19.9999L0 28.8777L0.06 29.4634C0.261375 31.4292 1.56525 33.0354 3.49181 33.6906C3.97406 33.8546 4.38975 33.866 9.91369 33.866C15.4376 33.866 15.8533 33.8546 16.3356 33.6906C18.2678 33.0334 19.5653 31.4355 19.7673 29.4646L19.8271 28.8804L15.4564 20.0851C13.0524 15.2477 11.0856 11.2753 11.0856 11.2576C11.0856 11.2399 13.2938 11.2254 15.9929 11.2254C20.628 11.2254 20.9089 11.2348 21.0554 11.3968C21.1981 11.5544 21.2106 12.5242 21.2106 23.4317V35.2951L20.8473 35.3532C20.3172 35.438 19.6202 35.9467 19.3643 36.4354C18.8963 37.3295 19.1649 38.5393 19.955 39.0962L20.3587 39.3807L19.9453 39.7447C19.7179 39.9448 19.0645 40.6315 18.4933 41.2705C17.3334 42.5683 16.594 43.1747 15.7958 43.4826C15.3243 43.6645 15.007 43.6978 13.2418 43.7515C11.3044 43.8105 11.204 43.823 10.6538 44.0726C9.54356 44.5767 8.71434 45.7203 8.58891 46.9205C8.53378 47.4479 8.54728 47.5081 8.77191 47.7327L9.01453 47.9754H24.0231H39.0316L39.2742 47.7327C39.4992 47.5077 39.5124 47.4485 39.4568 46.9155C39.3307 45.7095 38.5543 44.6305 37.4293 44.0978C36.8244 43.8114 36.8051 43.8087 34.8043 43.7498C33.0361 43.6975 32.7226 43.6647 32.2503 43.4826C31.4521 43.1747 30.7127 42.5683 29.5528 41.2705C28.9816 40.6315 28.3283 39.9448 28.1008 39.7447L27.6875 39.3807L28.0912 39.0962C28.6823 38.6795 28.9289 38.1156 28.8821 37.2878C28.8521 36.7569 28.795 36.5669 28.5666 36.2372C28.2722 35.8127 27.4586 35.3191 27.0532 35.3191H26.8356V23.4274C26.8356 12.026 26.8426 11.5293 27.007 11.3805C27.1619 11.2404 27.6499 11.2254 32.0695 11.2254C34.7596 11.2254 36.9606 11.24 36.9606 11.2578C36.9606 11.2757 34.9937 15.2476 32.5897 20.0843L28.2188 28.8783L28.2788 29.4636C28.4801 31.4292 29.7842 33.0354 31.7106 33.6906C32.1928 33.8546 32.6085 33.866 38.1324 33.866C43.6564 33.866 44.0721 33.8546 44.5543 33.6906C46.4867 33.0334 47.7841 31.4356 47.986 29.4644L48.0459 28.8798L43.6331 20.0009C40.8686 14.4385 39.2622 11.1075 39.3326 11.0831C40.8791 10.5483 41.6643 9.95354 42.3813 8.77389C42.9612 7.8196 43.1944 6.36517 42.9115 5.46601C42.6982 4.78754 42.0594 4.05864 41.4156 3.75882C40.7554 3.45142 39.7274 3.45142 39.0699 3.75892C38.5186 4.01682 37.8667 4.69089 37.6537 5.2231L37.5027 5.60035H32.3261H27.1495L26.9238 5.36017C26.7997 5.22798 26.5626 5.03607 26.3968 4.9337L26.0955 4.74742L26.3638 4.32432C27.2681 2.89848 26.7642 1.02132 25.2828 0.296448C24.6022 -0.0364586 23.7776 -0.0929898 23.1048 0.147198ZM24.6818 1.57032C25.0977 1.78257 25.4293 2.32267 25.4293 2.78785C25.4293 3.25304 25.0977 3.79314 24.6818 4.00539C24.2132 4.24445 23.8329 4.24445 23.3644 4.00539C22.9484 3.79314 22.6168 3.25304 22.6168 2.78785C22.6168 2.33701 22.9486 1.78389 23.3444 1.57492C23.7968 1.33614 24.2198 1.33473 24.6818 1.57032ZM8.52581 5.12748C8.91938 5.36748 9.09731 5.65323 9.20194 6.21329C9.36 7.05901 8.98631 7.0066 14.8542 7.0066H20.0083L19.9297 7.40504C19.8288 7.91729 19.8291 8.90973 19.9303 9.42423L20.0095 9.82623L14.5397 9.79923L9.06994 9.77223L8.50744 9.50992C7.35319 8.97151 6.53878 7.83273 6.43575 6.61304C6.37613 5.90729 6.55238 5.48579 7.04475 5.15692C7.45172 4.88504 8.10684 4.87201 8.52581 5.12748ZM41.0014 5.15692C41.4937 5.48579 41.67 5.90729 41.6104 6.61304C41.5073 7.83273 40.6929 8.97151 39.5387 9.50992L38.9762 9.77223L33.5064 9.79923L28.0366 9.82623L28.1158 9.42423C28.2171 8.90973 28.2173 7.91729 28.1164 7.40504L28.0378 7.0066H33.1919C39.0598 7.0066 38.6861 7.05901 38.8442 6.21329C38.8913 5.96064 38.9954 5.65407 39.0754 5.53201C39.4622 4.94167 40.4045 4.7581 41.0014 5.15692ZM25.2828 5.92145C26.2633 6.40126 26.7848 7.2662 26.7848 8.41285C26.7848 9.56926 26.2645 10.423 25.2589 10.9169C24.8197 11.1325 24.6028 11.1785 24.0231 11.1785C23.4433 11.1785 23.2265 11.1325 22.7872 10.9169C21.2848 10.1791 20.7712 8.31292 21.6774 6.88407C22.4254 5.7047 23.9873 5.2877 25.2828 5.92145ZM23.522 7.92807C23.3123 8.15973 23.3215 8.71782 23.5383 8.91395C23.7699 9.12367 24.328 9.11439 24.5242 8.89764C24.7339 8.66598 24.7246 8.10789 24.5078 7.91176C24.2762 7.70204 23.7181 7.71132 23.522 7.92807ZM24.0231 12.5847C24.3582 12.5847 24.8118 12.5494 25.0309 12.5062L25.4293 12.4276V23.8734V35.3191H24.0231H22.6168V23.8734V12.4276L23.0153 12.5062C23.2344 12.5494 23.6879 12.5847 24.0231 12.5847ZM9.47878 29.515C9.68944 29.6855 9.90619 29.6941 14.0022 29.6941C17.3819 29.6941 18.3041 29.7192 18.3034 29.8113C18.3029 29.8758 18.1989 30.1509 18.0724 30.4227C17.7414 31.1336 17.0105 31.8665 16.3095 32.1903L15.7262 32.4597H9.91369H4.10119L3.53869 32.1972C2.80828 31.8565 2.13244 31.1956 1.79362 30.491C1.64494 30.1816 1.52316 29.8758 1.52316 29.8113C1.52306 29.7201 2.16759 29.6941 4.43353 29.6941H7.34409L7.57416 29.464C7.8675 29.1707 7.8675 28.8113 7.57416 28.518L7.34409 28.2879H4.61325C2.96822 28.2879 1.89488 28.2532 1.91372 28.2006C1.93088 28.1526 3.56916 24.8514 5.55431 20.8646L9.16369 13.616L9.21056 21.4759L9.25744 29.3357L9.47878 29.515ZM17.9293 28.2489C17.9293 28.2703 16.284 28.2879 14.2731 28.2879H10.6168V20.911V13.5342L14.2731 20.872C16.284 24.9078 17.9293 28.2274 17.9293 28.2489ZM37.4293 20.9285V28.2879H33.7653C31.5443 28.2879 30.1135 28.2535 30.1325 28.2006C30.1886 28.0437 37.3818 13.5781 37.4059 13.5735C37.4187 13.5711 37.4293 16.8808 37.4293 20.9285ZM46.1481 28.2489C46.1481 28.2703 44.5028 28.2879 42.4918 28.2879H38.8356V20.911V13.5342L42.4918 20.872C44.5028 24.9078 46.1481 28.2274 46.1481 28.2489ZM46.5221 29.8113C46.5217 29.8758 46.4177 30.1509 46.2911 30.4227C45.9602 31.1336 45.2292 31.8665 44.5282 32.1903L43.9449 32.4597H38.1324H32.3199L31.7574 32.1972C31.027 31.8565 30.3512 31.1956 30.0124 30.491C29.8637 30.1816 29.7419 29.8758 29.7419 29.8113C29.7418 29.7184 31.4824 29.6941 38.1324 29.6941C44.783 29.6941 46.5229 29.7184 46.5221 29.8113ZM27.2866 36.9165C27.4205 37.0412 27.4918 37.2191 27.4918 37.4285C27.4918 37.6378 27.4205 37.8158 27.2866 37.9405C27.0889 38.1248 26.9713 38.1316 24.0231 38.1316C21.0748 38.1316 20.9572 38.1248 20.7595 37.9405C20.6257 37.8158 20.5543 37.6378 20.5543 37.4285C20.5543 37.2191 20.6257 37.0412 20.7595 36.9165C20.9572 36.7322 21.0748 36.7254 24.0231 36.7254C26.9713 36.7254 27.0889 36.7322 27.2866 36.9165ZM24.9713 39.6321C26.1649 39.8549 26.8526 40.3819 28.977 42.7019L29.9428 43.7566H24.0233H18.1037L19.0235 42.7488C20.6024 41.0187 21.361 40.3179 21.9884 40.0092C22.895 39.5633 23.913 39.4346 24.9713 39.6321ZM36.6216 45.2774C36.8571 45.3474 37.181 45.5649 37.4528 45.8355C38.2636 46.643 39.6157 46.5691 24.0231 46.5691C11.5625 46.5691 10.1481 46.5543 10.1481 46.424C10.1481 46.1984 11.0011 45.4019 11.3668 45.286C11.8617 45.1291 36.0944 45.121 36.6216 45.2774Z" fill="url(#paint0_linear_63_4)"/>
<defs>
<linearGradient id="paint0_linear_63_4" x1="0" y1="0" x2="51.1273" y2="3.54588" gradientUnits="userSpaceOnUse">
<stop stop-color="#28B945"/>
<stop offset="1" stop-color="#005611"/>
</linearGradient>
</defs>
</svg>
