<svg width="49" height="49" viewBox="0 0 49 49" fill="none" xmlns="http://www.w3.org/2000/svg">
<path fill-rule="evenodd" clip-rule="evenodd" d="M5.54016 5.7358C5.27341 5.78595 4.70363 5.99644 4.27392 6.20353C2.79739 6.91532 1.61088 8.45607 1.32735 10.0301C1.1705 10.9005 1.18399 32.9656 1.34161 33.4992C1.49904 34.0321 2.30259 34.8356 2.83541 34.993C3.07199 35.063 3.83461 35.111 4.70703 35.111C6.14107 35.111 6.18569 35.1048 6.41752 34.8729C6.73258 34.5579 6.73258 34.1121 6.41752 33.7971C6.18579 33.5653 6.14049 33.559 4.71566 33.559C3.29083 33.559 3.24553 33.5527 3.01379 33.3209C2.78439 33.0915 2.77566 33.0346 2.77566 31.7689V30.455H3.31352C3.9608 30.455 4.32766 30.1743 4.32766 29.679C4.32766 29.1837 3.9608 28.903 3.31352 28.903H2.77566V28.127V27.351H3.31352C3.9608 27.351 4.32766 27.0703 4.32766 26.575C4.32766 26.0797 3.9608 25.799 3.31352 25.799H2.77566V22.695V19.591H20.1722H37.5688L41.876 21.0846L46.1832 22.5782L46.2091 24.9646L46.2351 27.351H44.9194C43.6519 27.351 43.5951 27.3597 43.3658 27.5891C43.1296 27.8252 43.1277 27.8422 43.1277 29.679C43.1277 31.5158 43.1296 31.5328 43.3658 31.7689C43.5951 31.9983 43.652 32.007 44.9178 32.007H46.2317V32.5448C46.2317 32.9867 46.1891 33.1254 45.9935 33.3209L45.7555 33.559L43.5443 33.5586L41.3332 33.5583L41.0121 32.9374C40.6328 32.2039 39.7917 31.3625 39.0743 30.999C37.2316 30.0652 35.1933 30.3658 33.6984 31.7917C32.0727 33.3424 31.8165 35.8402 33.0891 37.7313L33.4146 38.215H24.5037H15.5928L15.9182 37.7313C16.3269 37.1239 16.6271 36.3301 16.7079 35.6424L16.7703 35.111H23.8909H31.0115L31.2495 34.8729C31.5646 34.5579 31.5646 34.1121 31.2495 33.7971L31.0115 33.559L23.7563 33.5586L16.5012 33.5583L16.1801 32.9374C15.8008 32.2039 14.9597 31.3625 14.2423 30.999C12.3996 30.0652 10.3614 30.3658 8.86639 31.7917C7.24067 33.3424 6.98449 35.8402 8.25713 37.7313L8.58256 38.215H6.6932C4.81654 38.215 4.80228 38.2166 4.56579 38.4531C4.25074 38.7681 4.25074 39.2139 4.56579 39.5289L4.80383 39.767H21.1323C35.4815 39.767 37.53 39.7489 38.0311 39.6185C39.847 39.1455 41.2218 37.6307 41.5129 35.7822L41.6186 35.111H43.6956C45.0428 35.111 45.9129 35.0696 46.1719 34.993C46.7047 34.8356 47.5083 34.0321 47.6657 33.4992C47.7524 33.2057 47.7837 31.5983 47.7837 27.4304V21.761L46.6757 16.2377C46.0663 13.1999 45.477 10.472 45.3661 10.1757C44.7293 8.47372 43.4456 7.10709 41.7212 6.2951C40.2048 5.58118 41.3691 5.62173 22.7375 5.63385C12.7695 5.64035 5.82941 5.68148 5.54016 5.7358ZM40.0185 7.32524C40.7901 7.50711 41.6923 7.94468 42.2062 8.38632L42.5942 8.71971L23.8445 8.7233L5.09483 8.72699L4.85679 8.96512C4.54174 9.28008 4.54174 9.72589 4.85679 10.0409C5.09367 10.2778 5.10414 10.279 7.03929 10.279H8.98366V14.159V18.039H5.87461H2.76557L2.79486 14.0862L2.82416 10.1335L3.13116 9.48553C3.29994 9.12925 3.61636 8.64424 3.83412 8.40795C4.26315 7.94255 5.14391 7.42408 5.7456 7.28285C5.96376 7.23163 13.1183 7.19099 22.7577 7.18614C37.3209 7.17887 39.4711 7.19623 40.0185 7.32524ZM18.2957 14.159V18.039H14.4157H10.5357V14.159V10.279H14.4157H18.2957V14.159ZM27.6077 14.159V18.039H23.7277H19.8477V14.159V10.279H23.7277H27.6077V14.159ZM36.9197 14.159V18.039H33.0397H29.1597V14.159V10.279H33.0397H36.9197V14.159ZM43.852 10.6873C43.9973 11.0504 45.9407 20.3734 45.9407 20.7073C45.9407 20.8355 44.7286 20.4431 39.8782 18.7444L38.5202 18.2688L38.4948 14.2739L38.4695 10.279H41.079H43.6886L43.852 10.6873ZM46.2317 29.679V30.455H45.4557H44.6797V29.679V28.903H45.4557H46.2317V29.679ZM13.5477 32.4056C14.2036 32.7551 14.4999 33.0637 14.8779 33.7911C15.0966 34.2121 15.1356 34.4104 15.1374 35.111C15.1394 35.866 15.1117 35.987 14.81 36.5467C14.4429 37.2274 14.1385 37.5213 13.4075 37.9012C12.9851 38.1207 12.7908 38.1586 12.0877 38.1586C11.3845 38.1586 11.1902 38.1207 10.7678 37.9012C10.0368 37.5213 9.7324 37.2274 9.36535 36.5467C9.0632 35.9863 9.03604 35.867 9.03895 35.111C9.04254 34.1381 9.27272 33.5561 9.90283 32.9264C10.8712 31.9589 12.3209 31.7516 13.5477 32.4056ZM38.3797 32.4056C39.0356 32.7551 39.3319 33.0637 39.7099 33.7911C39.9286 34.2121 39.9676 34.4104 39.9694 35.111C39.9714 35.866 39.9437 35.987 39.642 36.5467C39.2749 37.2274 38.9705 37.5213 38.2395 37.9012C37.8171 38.1207 37.6228 38.1586 36.9197 38.1586C36.2165 38.1586 36.0222 38.1207 35.5998 37.9012C34.8688 37.5213 34.5644 37.2274 34.1974 36.5467C33.8952 35.9863 33.868 35.867 33.871 35.111C33.8745 34.1381 34.1047 33.5561 34.7348 32.9264C35.7032 31.9589 37.1529 31.7516 38.3797 32.4056ZM11.4523 33.6955C10.4737 34.1217 10.2425 35.4226 11.0092 36.1894C12.099 37.2792 13.8849 36.3031 13.5981 34.7743C13.4266 33.86 12.3348 33.3111 11.4523 33.6955ZM36.2843 33.6955C35.3057 34.1217 35.0745 35.4226 35.8412 36.1894C36.931 37.2792 38.7169 36.3031 38.4301 34.7743C38.2585 33.86 37.1668 33.3111 36.2843 33.6955ZM1.46179 38.4531C0.944977 38.9698 1.32318 39.767 2.08521 39.767C2.38601 39.767 2.51473 39.7109 2.67158 39.5114C2.95016 39.1572 2.92378 38.8333 2.58913 38.4985C2.22732 38.1367 1.79547 38.1193 1.46179 38.4531ZM18.5338 41.5571C18.3836 41.7072 18.2957 41.906 18.2957 42.095C18.2957 42.2839 18.3836 42.4828 18.5338 42.6328L18.7718 42.871H33.0397H47.3075L47.5455 42.6328C47.6957 42.4828 47.7837 42.2839 47.7837 42.095C47.7837 41.906 47.6957 41.7072 47.5455 41.5571L47.3075 41.319H33.0397H18.7718L18.5338 41.5571Z" fill="url(#paint0_linear_7_52)"/>
<defs>
<linearGradient id="paint0_linear_7_52" x1="1.21632" y1="5.62904" x2="50.638" y2="9.9086" gradientUnits="userSpaceOnUse">
<stop stop-color="#28B945"/>
<stop offset="1" stop-color="#005611"/>
</linearGradient>
</defs>
</svg>
