<svg width="49" height="49" viewBox="0 0 49 49" fill="none" xmlns="http://www.w3.org/2000/svg">
<path fill-rule="evenodd" clip-rule="evenodd" d="M17.1495 3.99774C15.122 4.84009 13.4777 5.57991 13.3297 5.71649C12.9465 6.06995 12.804 6.49569 12.8041 7.28672C12.8042 8.58662 13.5221 9.62753 14.7363 10.0885C15.4097 10.3441 16.6876 10.3626 17.751 10.1321C18.6232 9.94316 20.3173 9.42974 20.6748 9.24612C21.032 9.0626 21.1849 8.59205 21.0021 8.23858C20.7565 7.76367 20.3576 7.73011 19.2957 8.09522C17.4633 8.72514 15.8024 8.92622 15.1678 8.59506C14.7027 8.35227 14.3882 7.91557 14.3119 7.40623C14.2743 7.15597 14.2798 6.91977 14.3241 6.88136C14.3683 6.84295 15.9136 6.19072 17.7582 5.43208L21.1119 4.05264L25.8092 4.0865L30.5065 4.12045L31.3794 4.39001C31.8687 4.54123 33.6591 5.34284 35.4534 6.214C40.2425 8.53938 40.9122 8.71902 44.7941 8.71999L47.0538 8.72058L47.2919 8.48244C47.5808 8.19357 47.6027 7.76503 47.3448 7.44609C47.1604 7.21814 47.1472 7.21678 44.4591 7.15781C41.979 7.1033 41.682 7.07817 40.821 6.85022C39.8781 6.60045 38.5056 5.99982 35.8722 4.68431C33.6652 3.58181 32.527 3.09409 31.525 2.82133L30.6035 2.57048L25.6565 2.54468L20.7095 2.51878L17.1495 3.99774ZM23.3 6.30023C23.0274 6.40955 22.8201 6.88466 22.6169 7.86552C22.3131 9.33119 22.7735 10.6584 23.9696 11.7658C24.7929 12.5281 25.3048 12.7995 28.1225 13.9675L30.3954 14.9097L30.8201 15.5455C31.7159 16.8868 33.3498 18.0377 34.9685 18.4678C36.3851 18.8441 38.5142 18.742 40.0143 18.226C40.5319 18.0479 40.8324 18.0326 43.8151 18.0326H47.0538L47.2919 17.7944C47.6069 17.4795 47.6069 17.0337 47.2919 16.7187L47.0538 16.4806L43.6786 16.4813C40.3638 16.4819 40.2912 16.4861 39.6115 16.7168C36.479 17.78 33.2407 16.7823 31.9117 14.3445L31.5709 13.7195L28.8936 12.6023C25.4149 11.1507 24.8704 10.8106 24.3271 9.75033C24.1337 9.3729 24.0179 8.24305 24.1581 8.10162C24.1876 8.07184 26.0494 8.81001 28.2953 9.74199C30.5412 10.6741 32.4846 11.4366 32.614 11.4366C33.1704 11.4366 33.5155 10.5707 33.1174 10.1732C32.8842 9.94025 23.9521 6.19179 23.6612 6.20469C23.5849 6.20808 23.4224 6.25105 23.3 6.30023ZM14.1013 11.8017C13.5338 11.8933 13.2305 12.7848 13.6334 13.177C14.1293 13.6601 15.035 13.2863 15.035 12.5986C15.035 12.4327 14.9922 12.2169 14.94 12.1194C14.8308 11.9153 14.4026 11.753 14.1013 11.8017ZM11.4667 14.2826C10.9871 14.5488 9.76005 16.5965 9.11645 18.2045C8.15324 20.6114 7.76999 23.3981 8.05285 25.9381C8.19621 27.2259 8.33686 27.8244 8.54464 28.0322C8.79946 28.287 9.35032 28.2763 9.61532 28.0113C9.84201 27.7846 9.84046 27.5852 9.59738 25.7441C9.45964 24.7014 9.52773 22.813 9.74753 21.5731C10.0737 19.7336 10.9056 17.6875 11.9781 16.0868C12.6789 15.041 12.7243 14.8339 12.3378 14.4475C12.0194 14.129 11.8135 14.09 11.4667 14.2826ZM21.3841 16.7187C21.146 16.9568 21.146 16.957 21.146 19.0467V21.1366H19.0561C16.9665 21.1366 16.9662 21.1366 16.7281 21.3747L16.49 21.6128V24.2406V26.8684L16.7281 27.1064C16.9662 27.3446 16.9665 27.3446 19.0561 27.3446H21.146V29.4344C21.146 31.5241 21.146 31.5244 21.3841 31.7624L21.6222 32.0006H24.25H26.8778L27.1159 31.7624C27.354 31.5244 27.354 31.5241 27.354 29.4344V27.3446H29.4439C31.5335 27.3446 31.5338 27.3446 31.7719 27.1064L32.01 26.8684V24.2406V21.6128L31.7719 21.3747C31.5338 21.1366 31.5335 21.1366 29.4439 21.1366H27.354V19.0467C27.354 16.957 27.354 16.9568 27.1159 16.7187L26.8778 16.4806H24.25H21.6222L21.3841 16.7187ZM25.802 20.1224C25.802 22.9142 25.5764 22.6886 28.3681 22.6886H30.458V24.2406V25.7926H28.3681C25.5764 25.7926 25.802 25.567 25.802 28.3587V30.4486H24.25H22.698V28.3587C22.698 25.567 22.9236 25.7926 20.1319 25.7926H18.042V24.2406V22.6886H20.1319C22.9236 22.6886 22.698 22.9142 22.698 20.1224V18.0326H24.25H25.802V20.1224ZM39.068 20.4132C38.7046 20.6135 38.6551 20.9091 38.8114 21.9458C38.9988 23.1876 38.9735 25.7033 38.7621 26.8531C38.4044 28.798 37.5898 30.7988 36.4799 32.4583C36.1296 32.9819 35.89 33.4441 35.89 33.5962C35.89 33.9536 36.2909 34.3286 36.6728 34.3286C37.0785 34.3286 37.4294 33.9397 38.2181 32.6157C39.2673 30.8542 39.9382 29.0587 40.3144 27.0051C40.676 25.031 40.4764 21.0179 39.9932 20.5441C39.7411 20.2968 39.3734 20.2449 39.068 20.4132ZM9.603 29.955C9.14953 30.0567 8.58751 30.2093 8.35403 30.2943C7.99765 30.4238 7.40974 30.4486 4.68792 30.4486H1.44618L1.20814 30.6867C0.893084 31.0017 0.893084 31.4475 1.20814 31.7624L1.44618 32.0006H4.82469C8.01589 32.0006 8.2353 31.9892 8.7819 31.7957C11.9381 30.6781 15.2355 31.6647 16.587 34.1311L16.9265 34.7506L19.497 35.8278C20.9108 36.4204 22.2974 37.0311 22.5783 37.185C23.7745 37.8408 24.3723 38.6791 24.387 39.7213C24.3917 40.0536 24.3689 40.3523 24.3365 40.385C24.304 40.4177 24.064 40.3524 23.803 40.2399C21.4509 39.2254 16.068 37.0446 15.9164 37.0446C15.8111 37.0446 15.6059 37.1468 15.4607 37.2718C15.1399 37.5477 15.104 38.0297 15.3834 38.3092C15.5891 38.5148 24.5711 42.2826 24.8557 42.2826C25.2369 42.2826 25.5066 41.9804 25.7083 41.3276C26.2795 39.4782 25.9098 38.0095 24.5501 36.7273C23.7576 35.98 23.1049 35.6342 20.3094 34.4807L18.1041 33.5707L17.6796 32.9353C16.7749 31.5806 15.1809 30.4575 13.5315 30.0127C12.597 29.7607 10.6006 29.7314 9.603 29.955ZM33.9871 35.2898C33.3858 35.6563 33.5256 36.5873 34.1925 36.6583C34.5892 36.7005 34.7411 36.6502 34.9732 36.3999C35.3522 35.9909 35.2597 35.4854 34.7567 35.2174C34.4669 35.0632 34.339 35.0752 33.9871 35.2898ZM31.7675 38.1727C30.7824 38.31 29.141 38.7311 28.1529 39.0999C27.5787 39.3143 27.3063 39.6823 27.4115 40.1015C27.5561 40.6776 28.1033 40.7644 29.2043 40.3859C31.0367 39.756 32.6976 39.5549 33.3322 39.8861C33.7973 40.1289 34.1118 40.5656 34.1881 41.0749C34.2257 41.3252 34.2202 41.5615 34.1759 41.6001C34.1317 41.6386 32.5874 42.2907 30.7443 43.0494L27.3932 44.4285L22.6933 44.3947L17.9935 44.3607L17.1315 44.0942C16.6574 43.9477 14.8241 43.1274 13.0575 42.2713C8.24374 39.9388 7.58579 39.7621 3.70589 39.7612L1.44618 39.7606L1.20814 39.9987C0.919177 40.2876 0.897255 40.7161 1.15518 41.0351C1.33957 41.263 1.35277 41.2644 4.04093 41.3233C7.45591 41.3983 7.78872 41.4745 10.6072 42.8246C15.5314 45.1833 16.0238 45.4031 16.9452 45.6527L17.8965 45.9105L22.8038 45.9459L27.7111 45.9812L31.2913 44.5071C35.0978 42.9398 35.4075 42.7658 35.6129 42.0806C35.785 41.5063 35.6793 40.3679 35.4032 39.821C35.1014 39.2234 34.4627 38.6572 33.8184 38.4161C33.3024 38.223 32.2781 38.1015 31.7675 38.1727Z" fill="url(#paint0_linear_7_46)"/>
<defs>
<linearGradient id="paint0_linear_7_46" x1="0.971848" y1="2.51878" x2="50.4798" y2="6.19138" gradientUnits="userSpaceOnUse">
<stop stop-color="#28B945"/>
<stop offset="1" stop-color="#005611"/>
</linearGradient>
</defs>
</svg>
