<svg width="48" height="48" viewBox="0 0 48 48" fill="none" xmlns="http://www.w3.org/2000/svg">
<g clip-path="url(#clip0_101_24)">
<path d="M48 44.9125C47.375 46.4125 46.84 46.76 45.19 46.76H16.3275C15.0625 46.76 14.1787 46.1425 13.9037 45.0525C13.8518 44.7691 13.8176 44.4827 13.8012 44.195C13.495 44.195 13.1762 44.1812 12.855 44.195C12.09 44.2325 11.5175 43.9188 11.1625 43.2513C10.8075 42.5838 10.4887 41.8938 10.14 41.185L8.47372 42.9888C7.61622 43.915 6.77747 44.8637 5.89372 45.7637C5.41708 46.2525 4.80215 46.5835 4.13171 46.7122C3.46127 46.8409 2.76748 46.7612 2.14372 46.4837C1.50944 46.2083 0.974113 45.7461 0.60901 45.1588C0.243907 44.5715 0.0663495 43.887 0.0999747 43.1963C0.146225 42.21 0.582475 41.4125 1.30622 40.7487C3.64872 38.5971 5.98664 36.4408 8.31997 34.28L11.1712 31.6437C11.2287 31.5912 11.2837 31.5363 11.3425 31.485C11.7262 31.1513 12.1362 31.135 12.4212 31.4412C12.7062 31.7475 12.685 32.1462 12.2962 32.5062C11.5125 33.2425 10.7187 33.9687 9.92872 34.6987C7.36622 37.0662 4.80081 39.4346 2.23247 41.8037C1.64872 42.3425 1.37497 42.99 1.54622 43.7762C1.61063 44.1328 1.77573 44.4636 2.02203 44.7294C2.26833 44.9952 2.58555 45.1849 2.93622 45.2762C3.72747 45.51 4.42122 45.2938 4.97997 44.7C5.99997 43.6075 7.01497 42.5 8.02997 41.4025C11.2658 37.8975 14.5016 34.3913 17.7375 30.8838C17.83 30.7825 17.915 30.6737 17.98 30.5975L16.25 28.875C15.8425 29.25 15.4112 29.6525 14.975 30.0487C14.5387 30.445 14.125 30.4675 13.8287 30.1325C13.5325 29.7975 13.615 29.3963 14.0412 29C14.19 28.8612 14.3337 28.7175 14.4912 28.59C15.07 28.115 15.455 27.6612 15.38 26.7537C15.255 25.265 16.7912 24.2012 18.31 24.5287C18.4637 24.5438 18.6189 24.5276 18.7662 24.4813C18.8137 24.4713 18.8475 24.3912 18.8912 24.3438C19.9554 23.0671 21.0262 21.7858 22.1037 20.5C20.825 19.8687 20.635 18.625 20.3387 17.4688C20.2037 16.9438 20.4737 16.4312 20.8475 16.0187C20.9825 15.87 21.1237 15.725 21.2425 15.6L20.0312 14.435C19.6275 14.56 19.1562 14.81 18.6662 14.8587C17.6162 14.975 16.5812 14.295 16.1225 13.2937C15.6887 12.3475 15.8912 11.305 16.6887 10.5062C19.5304 7.65875 22.375 4.81417 25.2225 1.9725C26.2325 0.963749 27.585 0.858749 28.5975 1.695C29.7675 2.6675 29.9725 3.9325 29.1687 5.18C29.145 5.21875 29.125 5.26 29.0925 5.32L30.36 6.485L30.695 6.1675C31.3337 5.5625 32.07 5.4 32.8925 5.71125C33.3491 5.86697 33.795 6.05237 34.2275 6.26625C34.5203 6.433 34.7817 6.64959 35 6.90625C35.365 7.31875 35.6937 7.765 36.0175 8.2125C36.1487 8.3925 36.315 8.61625 36.305 8.8125C36.295 9.00875 36.1425 9.32125 35.9675 9.40625C35.7725 9.5025 35.4675 9.4525 35.2387 9.37C35.05 9.30125 34.9112 9.09375 34.7962 8.995L23.7875 20.0063C24.7875 21.0138 25.855 22.0825 26.8787 23.1125C30.5429 19.4542 34.2175 15.7825 37.9025 12.0975C37.7465 11.9477 37.5984 11.79 37.4587 11.625C37.2162 11.3137 37.2087 10.9787 37.4887 10.6937C37.7687 10.4087 38.1025 10.395 38.4162 10.635C38.6137 10.785 38.7662 10.9937 38.96 11.1475C39.2462 11.3775 39.5525 11.5812 39.85 11.7962C39.9875 11.8962 40.1687 11.9712 40.255 12.105C40.795 12.9475 41.255 13.835 41.2812 14.8625C41.3012 15.58 40.8375 16.0662 40.3787 16.4875L41.595 17.665C41.9875 17.54 42.4575 17.3 42.9487 17.2437C44.0012 17.125 45.03 17.7987 45.4925 18.8037C45.93 19.755 45.7425 20.7863 44.9375 21.59C42.4375 24.0983 39.9341 26.6008 37.4275 29.0975C37.295 29.2085 37.1528 29.3072 37.0025 29.3925C37.0337 29.4487 37.0637 29.5063 37.0937 29.5625H37.5725C40.1137 29.5625 42.6562 29.6037 45.1975 29.5462C46.5937 29.515 47.5387 30.0163 48.0012 31.3525V32.2887C47.5562 33.4825 46.745 34.1388 45.4212 34.0788C45.3503 34.0901 45.283 34.118 45.2248 34.1601C45.1667 34.2022 45.1192 34.2574 45.0862 34.3213C44.795 34.9888 44.4737 35.6513 44.2762 36.3488C44.1175 36.91 44.12 37.5175 44.0487 38.0988C43.9962 38.5413 43.7125 38.825 43.3337 38.82C42.955 38.815 42.6662 38.5125 42.6525 38.08C42.645 37.82 42.6525 37.5588 42.6525 37.25H34.0762C33.3387 37.25 33.025 37.0475 33.0162 36.565C33.0075 36.0825 33.3375 35.8475 34.0937 35.8475C36.9012 35.8475 39.7075 35.8475 42.515 35.84C42.6687 35.84 42.9137 35.7687 42.96 35.6625C43.1825 35.155 43.3512 34.6225 43.5537 34.0625H36.705C30.205 34.0625 23.705 34.0625 17.205 34.0625C17.0237 34.0625 16.7775 34.04 16.675 34.1413C16.15 34.66 15.6612 35.2163 15.0812 35.845H15.7062C19.6662 35.845 23.6266 35.845 27.5875 35.845C27.7585 35.8339 27.9303 35.8444 28.0987 35.8763C28.2547 35.9058 28.3944 35.9914 28.4916 36.1169C28.5887 36.2424 28.6366 36.3991 28.6262 36.5575C28.6312 36.7241 28.5728 36.8864 28.4628 37.0116C28.3529 37.1369 28.1996 37.2158 28.0337 37.2325C27.8632 37.2515 27.6913 37.2561 27.52 37.2463H14.485C14.3512 38.7463 14.515 40.1475 15.0637 41.4963C15.3737 42.2625 15.3775 42.26 16.1762 42.2463C16.3312 42.2463 16.4875 42.2463 16.6437 42.2463H43.5875C43.4837 42.0038 43.4037 41.84 43.3375 41.6688C43.1875 41.2538 43.3312 40.8688 43.6837 40.72C44.0362 40.5713 44.4162 40.72 44.6175 41.1037C44.7425 41.3537 44.8762 41.6037 44.9925 41.8537C45.1175 42.1462 45.32 42.2287 45.6425 42.2612C46.1019 42.3068 46.5503 42.4297 46.9687 42.625C47.5487 42.905 47.7837 43.4925 48 44.0662V44.9125ZM30.9037 43.655H16.5C16.3134 43.6474 16.1266 43.655 15.9412 43.6775C15.7573 43.7086 15.5891 43.8006 15.4636 43.9387C15.3382 44.0768 15.2628 44.2531 15.2496 44.4392C15.2363 44.6253 15.2859 44.8104 15.3905 44.965C15.4951 45.1195 15.6485 45.2344 15.8262 45.2912C16.0376 45.3425 16.2552 45.3631 16.4725 45.3525C26.1091 45.3525 35.745 45.3525 45.38 45.3525C45.4575 45.3525 45.5362 45.3525 45.6137 45.3525C46.2112 45.3338 46.5875 45.0112 46.5962 44.5112C46.605 44.0112 46.2212 43.6663 45.5962 43.6525C45.4712 43.6525 45.3462 43.6525 45.2212 43.6525L30.9037 43.655ZM18.0175 32.655H45.5487C45.6577 32.6598 45.7668 32.6552 45.875 32.6413C45.9868 32.6231 46.0939 32.5829 46.19 32.523C46.2861 32.4632 46.3694 32.3848 46.435 32.2924C46.5006 32.2001 46.5472 32.0956 46.5721 31.9851C46.597 31.8746 46.5997 31.7603 46.58 31.6488C46.49 31.1913 46.1387 30.96 45.5137 30.96C37.6562 30.96 29.7991 30.96 21.9425 30.96C21.7298 30.9652 21.522 31.0246 21.3387 31.1325C20.7806 31.4885 20.1047 31.6102 19.4575 31.4713C19.3869 31.4548 19.3137 31.4533 19.2425 31.4666C19.1713 31.4799 19.1036 31.5079 19.0437 31.5487C18.71 31.875 18.41 32.2287 18.0175 32.655ZM26.375 24.7987C26.3362 24.8091 26.2991 24.8251 26.265 24.8463C24.9858 25.9146 23.7091 26.9854 22.435 28.0588C22.3903 28.0961 22.3537 28.1422 22.3275 28.1943C22.3013 28.2463 22.2859 28.3031 22.2825 28.3612C22.3137 28.7437 22.3812 29.1225 22.4387 29.53H32.25C31.8212 28.5475 31.895 27.6325 32.5 26.8475L31.2812 25.5763C30.8162 26.1113 30.2512 26.6475 29.5112 26.52C28.2987 26.31 27.0562 26.0462 26.375 24.7987ZM28.2625 3.85875C28.2025 3.22125 27.9137 2.85875 27.475 2.64625C27.0087 2.415 26.6 2.58 26.2487 2.93C23.3962 5.7825 20.5446 8.63542 17.6937 11.4887C17.1687 12.015 17.18 12.5737 17.6875 13.0862C18.195 13.5987 18.765 13.6262 19.285 13.1075C22.1541 10.25 25.0175 7.38542 27.875 4.51375C28.0675 4.31625 28.1675 4.02375 28.2625 3.85875ZM33.3225 28.3C33.3574 28.5493 33.4535 28.7861 33.6023 28.9892C33.751 29.1922 33.9478 29.3553 34.175 29.4638C34.6175 29.6475 35.0012 29.5325 35.3275 29.2062C38.2025 26.3337 41.0775 23.4587 43.9525 20.5812C44.4625 20.0712 44.4362 19.4875 43.92 18.9837C43.4037 18.48 42.8587 18.475 42.3575 18.975C39.4791 21.8442 36.6062 24.7192 33.7387 27.6C33.55 27.7888 33.4575 28.065 33.3225 28.3ZM27.7987 24.4775C28.205 24.6463 28.6275 24.8 29.0287 24.995C29.4587 25.205 29.7787 25.12 30.11 24.7787C31.5975 23.2675 33.1025 21.7787 34.6025 20.2787C36.25 18.6312 37.8937 17 39.525 15.34C39.695 15.1675 39.9 14.8625 39.855 14.6775C39.7112 14.1025 39.4537 13.5525 39.2525 13.0262L27.7987 24.4775ZM22.3525 19.0125C26.1812 15.1838 29.965 11.4012 33.7687 7.59625C33.3812 7.43375 32.9262 7.2475 32.475 7.05C32.1287 6.89875 31.85 6.975 31.5925 7.24375C30.985 7.86875 30.3612 8.4825 29.7437 9.1C27.1979 11.6467 24.6537 14.1967 22.1112 16.75C21.9312 16.9312 21.7112 17.25 21.76 17.4487C21.8987 18.0087 22.165 18.54 22.3525 19.0125ZM33.4862 25.6625L40.375 18.78L39.3487 17.655C37.0296 19.975 34.725 22.2796 32.435 24.5688L33.4862 25.6625ZM28.1325 6.42625L21.24 13.3175L22.2887 14.4687L29.2075 7.5575L28.1325 6.42625ZM25.3312 23.7825C24.5637 23.0162 23.825 22.2825 23.0812 21.5325L19.8075 25.44L21.4325 27.065C22.7287 25.9675 24.06 24.85 25.3312 23.7825ZM21.0737 29.2687C20.9487 28.95 20.9225 28.7038 20.7862 28.5613C19.9775 27.7188 19.1612 26.8812 18.3087 26.0812C17.9337 25.7287 17.345 25.8125 16.9987 26.1775C16.6525 26.5425 16.6075 27.0987 16.9462 27.4562C17.7387 28.2925 18.5575 29.1063 19.3887 29.905C19.5202 30.0449 19.6976 30.1328 19.8885 30.1528C20.0794 30.1728 20.2712 30.1234 20.4287 30.0138C20.6937 29.8263 20.875 29.5112 21.0737 29.2687V29.2687ZM12.9612 38.1338C12.4437 38.6938 11.9537 39.21 11.4862 39.7438C11.4479 39.7974 11.4219 39.8588 11.41 39.9236C11.3982 39.9884 11.4007 40.055 11.4175 40.1188C11.7225 40.9313 12.0416 41.7371 12.375 42.5363C12.4055 42.5965 12.4492 42.649 12.5029 42.6899C12.5566 42.7308 12.6188 42.759 12.685 42.7725C13.1275 42.8 13.5737 42.7837 14.0187 42.7837C13.7687 42 13.4762 41.2837 13.305 40.5337C13.1337 39.7837 13.0787 38.9925 12.9612 38.1338Z" fill="url(#paint0_linear_101_24)"/>
<path d="M27.8749 40.4325H20.1162C19.9603 40.4388 19.8041 40.435 19.6487 40.4213C19.4821 40.4123 19.3254 40.3394 19.2111 40.2179C19.0968 40.0964 19.0337 39.9356 19.0349 39.7688C19.0137 39.3938 19.2224 39.1438 19.5824 39.0575C19.7511 39.0276 19.9228 39.0183 20.0937 39.03H35.8024C36.4374 39.03 36.7637 39.2675 36.7712 39.7238C36.7787 40.18 36.4512 40.4325 35.8249 40.4338C33.1766 40.4346 30.5266 40.4342 27.8749 40.4325Z" fill="url(#paint1_linear_101_24)"/>
</g>
<defs>
<linearGradient id="paint0_linear_101_24" x1="0.0959473" y1="1.13445" x2="51.0495" y2="4.83841" gradientUnits="userSpaceOnUse">
<stop stop-color="#28B945"/>
<stop offset="1" stop-color="#005611"/>
</linearGradient>
<linearGradient id="paint1_linear_101_24" x1="19.0334" y1="39.0251" x2="29.8182" y2="48.4185" gradientUnits="userSpaceOnUse">
<stop stop-color="#28B945"/>
<stop offset="1" stop-color="#005611"/>
</linearGradient>
<clipPath id="clip0_101_24">
<rect width="48" height="48" fill="white"/>
</clipPath>
</defs>
</svg>
