<svg width="48" height="46" viewBox="0 0 48 46" fill="none" xmlns="http://www.w3.org/2000/svg">
<path fill-rule="evenodd" clip-rule="evenodd" d="M2.72097 0.462306C1.34172 0.834306 0.322372 1.95959 0.0924035 3.36415C-0.0273152 4.09521 -0.0314402 18.499 0.0879973 18.813C0.340747 19.4778 1.10865 19.6557 1.60093 19.1635L1.87497 18.8894L1.87553 11.3588C1.87581 6.46784 1.90993 3.70587 1.97284 3.47946C2.1024 3.01315 2.48687 2.57374 2.94925 2.36374C3.31309 2.19837 4.14475 2.19162 24 2.19162C43.8552 2.19162 44.6868 2.19837 45.0507 2.36374C45.5131 2.57374 45.8975 3.01315 46.0271 3.47946C46.0803 3.67118 46.1241 4.58018 46.1244 5.4994L46.125 7.17068L46.399 7.44471C46.9457 7.99146 47.8147 7.69231 47.9622 6.90649C47.9955 6.72912 48.003 5.81627 47.979 4.87793C47.9422 3.44074 47.9045 3.09349 47.7404 2.67471C47.3691 1.72774 46.6038 0.959275 45.6377 0.563181L45.1406 0.359368L24.1875 0.341556C5.96284 0.326087 3.1675 0.341837 2.72097 0.462306ZM17.052 8.23437C16.9172 8.30749 16.7583 8.48515 16.6988 8.62906C16.6191 8.82143 16.5971 10.9452 16.6156 16.6566L16.6406 24.4226L16.9037 24.6488C17.4437 25.1133 17.2997 25.1816 24.3614 21.1147C27.9525 19.0465 31.0067 17.2317 31.1484 17.0819C31.4757 16.7361 31.4949 16.2658 31.1953 15.9309C31.0251 15.7407 19.3392 8.9194 18.074 8.27177C17.6642 8.06196 17.3877 8.05184 17.052 8.23437ZM46.5726 9.83365C45.7607 10.2743 46.1041 11.5658 47.0318 11.5604C47.9323 11.5552 48.3056 10.509 47.6146 9.92749C47.2949 9.65852 46.9522 9.62759 46.5726 9.83365ZM23.6461 13.6317C26.3415 15.1866 28.5572 16.4677 28.5697 16.4787C28.5823 16.4898 26.3713 17.7823 23.6564 19.351C20.9414 20.9197 18.6635 22.2369 18.5944 22.2781C18.4899 22.3405 18.4687 21.3728 18.4687 16.5259C18.4687 11.4283 18.4861 10.7053 18.607 10.7517C18.683 10.7809 20.9507 12.0769 23.6461 13.6317ZM46.6406 13.6401C46.5375 13.6968 46.3802 13.8326 46.2911 13.9419C46.1407 14.1265 46.1289 14.676 46.1266 21.6406C46.1248 26.5785 46.0904 29.2616 46.0256 29.4947C45.9032 29.9354 45.4286 30.4871 45.0279 30.6546C44.5764 30.8432 3.42353 30.8432 2.97203 30.6546C2.57134 30.4871 2.09668 29.9354 1.97434 29.4947C1.92025 29.3 1.87487 28.4023 1.87337 27.5C1.87112 26.0877 1.84825 25.8315 1.70884 25.6594C1.32043 25.18 0.79656 25.1274 0.353029 25.5234L0.046841 25.7966L0.0174035 27.4387C0.00127852 28.3417 0.032591 29.3217 0.0870598 29.6163C0.312904 30.8381 1.04387 31.7934 2.15593 32.3204L2.76559 32.6094H24H45.2343L45.844 32.3204C46.9478 31.7973 47.6871 30.8373 47.9086 29.6396C47.9687 29.3142 47.9942 26.3813 47.9782 21.6027L47.9531 14.0783L47.6469 13.8048C47.3248 13.517 46.97 13.4589 46.6406 13.6401ZM0.385372 21.6462C-0.305659 22.2278 0.0676536 23.2739 0.968122 23.2792C1.24131 23.2808 1.39225 23.2159 1.60093 23.0072C2.4264 22.1817 1.2775 20.8956 0.385372 21.6462ZM12.0871 35.4094C11.088 35.6788 10.1959 36.4771 9.8364 37.4237C9.71322 37.7481 9.61618 38.2708 9.5859 38.7734L9.5365 39.5937H5.06228H0.58806L0.350122 39.8316C0.032591 40.1492 -0.0321902 40.4603 0.135622 40.862C0.387904 41.4657 0.413028 41.4687 5.23309 41.4687H9.53472L9.58928 42.3103C9.65978 43.3997 9.96043 44.0992 10.6288 44.7288C11.4049 45.4601 11.8713 45.6406 12.9843 45.6406C13.8373 45.6406 13.9712 45.6156 14.4694 45.3631C15.1765 45.0049 15.8634 44.2558 16.1243 43.5584C16.2358 43.2605 16.3487 42.6795 16.3792 42.2462L16.4341 41.4687H31.7513C48.7249 41.4687 47.593 41.5114 47.8643 40.862C48.0321 40.4603 47.9673 40.1492 47.6498 39.8316L47.4119 39.5937H31.9091H16.4062L16.4057 39.1484C16.4042 37.9236 16.0714 37.0119 15.3658 36.2988C14.4948 35.4189 13.2772 35.0886 12.0871 35.4094ZM13.6817 37.3408C13.8808 37.4424 14.1427 37.6849 14.2639 37.8799C14.4762 38.2212 14.4854 38.3144 14.5119 40.3906C14.5386 42.4817 14.533 42.5596 14.3244 42.968C14.0358 43.533 13.6018 43.8125 13.0127 43.8125C12.447 43.8125 12.0894 43.6359 11.747 43.1873L11.4843 42.8432L11.4576 40.6325C11.4317 38.4883 11.4373 38.4092 11.6451 38.0004C12.0327 37.2379 12.9181 36.9512 13.6817 37.3408Z" fill="url(#paint0_linear_63_14)"/>
<defs>
<linearGradient id="paint0_linear_63_14" x1="0.000488281" y1="0.336609" x2="51.0419" y2="4.0811" gradientUnits="userSpaceOnUse">
<stop stop-color="#28B945"/>
<stop offset="1" stop-color="#005611"/>
</linearGradient>
</defs>
</svg>
