<svg width="48" height="48" viewBox="0 0 48 48" fill="none" xmlns="http://www.w3.org/2000/svg">
<path fill-rule="evenodd" clip-rule="evenodd" d="M17.3946 7.43249C16.2795 7.73236 15.1419 8.63326 14.6104 9.63753C13.7298 11.3011 13.929 13.2303 15.134 14.7098L15.5131 15.1752L15.1051 14.9703C13.2246 14.0257 10.8511 14.6018 9.54967 16.3187C8.93364 17.1313 8.65268 17.9853 8.65115 19.0498C8.64903 20.483 9.34503 21.8363 10.5048 22.6543L11.0042 23.0064L10.23 23.3933C9.59402 23.7111 9.3184 23.9176 8.68634 24.5499C7.71447 25.5222 7.22836 26.4256 6.91967 27.8337C6.87226 28.0498 6.84631 28.0589 6.1928 28.0886C5.58652 28.1161 5.49026 28.1441 5.28045 28.3539L5.04588 28.5885L5.02298 34.3601L5 40.1318L5.29012 40.4219L5.58016 40.7119H24H42.4198L42.7099 40.4219L43 40.1318L42.977 34.3601L42.9541 28.5885L42.7196 28.3539C42.5097 28.1441 42.4135 28.1161 41.8072 28.0886C41.1537 28.0589 41.1277 28.0498 41.0803 27.8337C40.9456 27.2201 40.5861 26.2716 40.3027 25.782C40.1285 25.4811 39.6615 24.9077 39.2651 24.5078C38.6786 23.9163 38.3999 23.7085 37.77 23.3936L36.9958 23.0064L37.4952 22.6543C38.3582 22.0457 39.0568 20.98 39.2718 19.9442C39.4069 19.2935 39.3301 18.1346 39.1119 17.5304C38.2031 15.0141 35.3008 13.8096 32.9173 14.9594L32.4979 15.1617L32.8715 14.703C34.3825 12.8479 34.2712 10.2763 32.6078 8.6129C30.8413 6.84648 28.0139 6.84648 26.2474 8.6129C24.5812 10.2792 24.4724 12.8476 25.9891 14.7098L26.3682 15.1752L25.9603 14.9703C24.7839 14.3795 23.2727 14.3754 22.0613 14.9598L21.6427 15.1617L22.0164 14.703C22.7355 13.8202 23.0671 12.9017 23.0671 11.7931C23.0671 9.74201 21.6838 7.94141 19.7137 7.42825C19.096 7.26737 18.0012 7.26932 17.3946 7.43249ZM19.8489 9.4278C20.4224 9.73344 20.6814 10.0032 21.0119 10.6392C21.2038 11.0085 21.2369 11.1784 21.2369 11.7931C21.2369 12.4115 21.2043 12.5769 21.0072 12.9564C20.7153 13.5182 20.2975 13.936 19.7357 14.2279C19.3562 14.425 19.1908 14.4576 18.5724 14.4576C17.9577 14.4576 17.7878 14.4245 17.4185 14.2326C16.7794 13.9005 16.5133 13.6435 16.1923 13.0483C15.9285 12.559 15.9043 12.4533 15.906 11.7931C15.9077 11.1806 15.9417 11.0072 16.133 10.6392C16.4534 10.0226 16.7139 9.74218 17.2244 9.46427C17.8228 9.13861 18.0859 9.07984 18.7633 9.12021C19.2024 9.14633 19.4554 9.21799 19.8489 9.4278ZM30.7041 9.4278C31.2775 9.73344 31.5365 10.0032 31.867 10.6392C32.0589 11.0085 32.0921 11.1784 32.0921 11.7931C32.0921 12.4115 32.0594 12.5769 31.8624 12.9564C31.5705 13.5182 31.1527 13.936 30.5909 14.2279C30.2114 14.425 30.046 14.4576 29.4276 14.4576C28.8128 14.4576 28.643 14.4245 28.2736 14.2326C27.6345 13.9005 27.3684 13.6435 27.0475 13.0483C26.7837 12.559 26.7595 12.4533 26.7612 11.7931C26.7628 11.1806 26.7969 11.0072 26.9881 10.6392C27.3085 10.0226 27.5691 9.74218 28.0796 9.46427C28.678 9.13861 28.941 9.07984 29.6185 9.12021C30.0576 9.14633 30.3106 9.21799 30.7041 9.4278ZM20.7405 15.9177C20.3261 16.3444 19.9554 16.9433 19.7423 17.5304C19.4905 18.2239 19.4368 19.4858 19.6305 20.1524C19.9344 21.1976 20.5431 22.0782 21.36 22.6543L21.8593 23.0064L21.1176 23.3777C20.29 23.792 19.3784 24.5715 18.9044 25.2701C18.7452 25.5048 18.5957 25.6969 18.5724 25.6969C18.5491 25.6969 18.3997 25.5048 18.2404 25.2701C17.7664 24.5715 16.8548 23.792 16.0272 23.3777L15.2855 23.0064L15.7849 22.6543C17.8729 21.1817 18.2659 18.1491 16.6249 16.1726C16.4367 15.946 16.2827 15.7448 16.2827 15.7257C16.2827 15.7065 16.4341 15.7681 16.6193 15.8625C17.7546 16.4417 19.4357 16.4262 20.5888 15.8258C20.8091 15.7112 21.0008 15.6155 21.0147 15.6134C21.0286 15.6112 20.9052 15.7481 20.7405 15.9177ZM31.5956 15.9177C31.1813 16.3444 30.8106 16.9433 30.5975 17.5304C30.3457 18.2239 30.2919 19.4858 30.4857 20.1524C30.7896 21.1976 31.3983 22.0782 32.2152 22.6543L32.7145 23.0064L31.9728 23.3777C31.1452 23.792 30.2336 24.5715 29.7596 25.2701C29.6003 25.5048 29.4509 25.6969 29.4276 25.6969C29.4043 25.6969 29.2548 25.5048 29.0956 25.2701C28.6216 24.5715 27.71 23.792 26.8824 23.3777L26.1407 23.0064L26.64 22.6543C28.7281 21.1817 29.1211 18.1491 27.48 16.1726C27.2918 15.946 27.1378 15.7448 27.1378 15.7257C27.1378 15.7065 27.2893 15.7681 27.4745 15.8625C28.6097 16.4417 30.2909 16.4262 31.4439 15.8258C31.6643 15.7112 31.8559 15.6155 31.8698 15.6134C31.8837 15.6112 31.7603 15.7481 31.5956 15.9177ZM14.0999 16.5077C14.6495 16.6896 15.3582 17.3508 15.6121 17.9187C15.9127 18.5911 15.8994 19.553 15.5805 20.2026C15.3216 20.7299 14.8759 21.179 14.3147 21.4783C14.0086 21.6415 13.822 21.6725 13.1448 21.6725C12.4677 21.6725 12.2811 21.6415 11.9749 21.4783C11.4138 21.179 10.9681 20.7299 10.7092 20.2026C10.3926 19.5577 10.3756 18.5854 10.6697 17.9416C11.2745 16.6179 12.6698 16.0347 14.0999 16.5077ZM24.9551 16.5077C25.5046 16.6896 26.2134 17.3508 26.4673 17.9187C26.7679 18.5911 26.7546 19.553 26.4356 20.2026C26.1767 20.7299 25.7311 21.179 25.1699 21.4783C24.8638 21.6415 24.6772 21.6725 24 21.6725C23.3228 21.6725 23.1363 21.6415 22.8301 21.4783C22.2689 21.179 21.8233 20.7299 21.5644 20.2026C21.2477 19.5577 21.2307 18.5854 21.5249 17.9416C22.1296 16.6179 23.5249 16.0347 24.9551 16.5077ZM35.8102 16.5077C36.3598 16.6896 37.0685 17.3508 37.3224 17.9187C37.6231 18.5911 37.6097 19.553 37.2908 20.2026C37.0319 20.7299 36.5862 21.179 36.0251 21.4783C35.7189 21.6415 35.5323 21.6725 34.8552 21.6725C34.178 21.6725 33.9914 21.6415 33.6853 21.4783C33.1241 21.179 32.6784 20.7299 32.4195 20.2026C32.1029 19.5577 32.0859 18.5854 32.38 17.9416C32.9848 16.6179 34.3801 16.0347 35.8102 16.5077ZM14.5403 24.6886C15.223 24.8995 15.9668 25.386 16.4864 25.9616C16.8821 26.4 17.3979 27.3409 17.5175 27.8426L17.5732 28.0759H13.154C10.3793 28.0759 8.73494 28.0455 8.73494 27.9943C8.73494 27.9493 8.8172 27.6918 8.91778 27.4218C9.76982 25.135 12.1848 23.9611 14.5403 24.6886ZM25.3955 24.6886C26.0782 24.8995 26.8219 25.386 27.3415 25.9616C27.7372 26.4 28.253 27.3409 28.3727 27.8426L28.4283 28.0759H24.0092C21.2345 28.0759 19.5901 28.0455 19.5901 27.9943C19.5901 27.9493 19.6724 27.6918 19.7729 27.4218C20.625 25.135 23.04 23.9611 25.3955 24.6886ZM36.2506 24.6886C36.9333 24.8995 37.6771 25.386 38.1967 25.9616C38.5924 26.4 39.1082 27.3409 39.2278 27.8426L39.2835 28.0759H34.8643C32.0896 28.0759 30.4453 28.0455 30.4453 27.9943C30.4453 27.9493 30.5275 27.6918 30.6281 27.4218C31.4801 25.135 33.8952 23.9611 36.2506 24.6886ZM41.1988 30.3444L41.2245 30.7897H24.0044H6.7844V30.3798C6.7844 30.1543 6.80993 29.9443 6.84114 29.9131C6.87234 29.8819 14.6099 29.866 24.0355 29.8778L41.1732 29.8992L41.1988 30.3444ZM41.1954 35.772L41.2176 38.931H24.001H6.7844V35.8074C6.7844 34.0893 6.80993 32.6581 6.84114 32.6269C6.87234 32.5957 14.6099 32.5798 24.0355 32.5916L41.1732 32.613L41.1954 35.772Z" fill="url(#paint0_linear_63_8)"/>
<defs>
<linearGradient id="paint0_linear_63_8" x1="5" y1="7.28809" x2="45.3813" y2="10.4674" gradientUnits="userSpaceOnUse">
<stop stop-color="#28B945"/>
<stop offset="1" stop-color="#005611"/>
</linearGradient>
</defs>
</svg>
