<svg width="48" height="48" viewBox="0 0 48 48" fill="none" xmlns="http://www.w3.org/2000/svg">
<g clip-path="url(#clip0_101_2)">
<path d="M0 9.82249C0.25 9.09499 0.7575 8.56249 1.29 8.03374C3.6475 5.69374 5.99625 3.34499 8.33625 0.987492C8.61316 0.693268 8.94897 0.460713 9.3218 0.304993C9.69462 0.149273 10.0961 0.0738836 10.5 0.0837417C17.285 0.097075 24.0696 0.099575 30.8538 0.0912417C32.5538 0.0912417 33.5062 1.05249 33.5075 2.76499C33.5075 6.59833 33.505 10.4342 33.5 14.2725C33.5 14.6475 33.5963 14.8287 33.9538 15.005C38.8388 17.4112 41.6413 21.3162 42.2125 26.7425C42.5663 30.1075 41.6963 33.1962 39.8375 36.0137C39.7775 36.1037 39.7225 36.195 39.6237 36.3512C40.1662 36.8812 40.7037 37.4175 41.2562 37.9375C41.3579 37.9987 41.4779 38.0217 41.595 38.0025C41.8368 37.9783 42.0809 38.0091 42.3091 38.0927C42.5372 38.1762 42.7435 38.3104 42.9125 38.485C44.2875 39.85 45.67 41.1975 47.0088 42.5925C48.6863 44.3425 47.9388 47.1375 45.6338 47.8687C45.5188 47.905 45.4088 47.9562 45.2975 48H44.1725C43.62 47.7025 42.975 47.5 42.5312 47.0887C41.1175 45.7725 39.7812 44.3775 38.4125 43.01C38.2313 42.837 38.0926 42.6244 38.0072 42.389C37.9217 42.1535 37.8919 41.9014 37.92 41.6525C37.9339 41.5353 37.9036 41.4172 37.835 41.3212C37.3212 40.7812 36.7938 40.255 36.2625 39.7175L35.875 39.96C30.7917 43.1025 25.6458 43.2075 20.4375 40.275C20.1192 40.0967 19.7622 39.9984 19.3975 39.9887C13.8487 39.9712 8.3 39.9787 2.75125 39.97C2.34788 39.9789 1.94546 39.927 1.5575 39.8162C0.71625 39.5475 0.28875 38.8662 0 38.0812V9.82249ZM17.8475 38.3587C13.2225 33.0975 11.9725 27.2337 15.4525 21.05C19.0425 14.6687 24.8412 12.7237 31.9175 14.125V2.84999C31.9175 1.91249 31.6937 1.68624 30.7687 1.68624H10.375V2.23249C10.375 4.10249 10.375 5.97333 10.375 7.84499C10.375 9.46999 9.375 10.47 7.75 10.47C5.87917 10.47 4.00792 10.47 2.13625 10.47H1.59375V37.2575C1.59375 38.1512 1.82375 38.3825 2.73625 38.3825C7.63292 38.3825 12.5296 38.3825 17.4263 38.3825C17.5738 38.375 17.7212 38.365 17.8475 38.3587ZM27.9375 40.8062C34.9563 40.8062 40.695 35.0562 40.7012 28.0262C40.7009 26.3463 40.3694 24.683 39.7255 23.1313C39.0817 21.5797 38.1383 20.1702 36.9492 18.9835C35.7601 17.7968 34.3486 16.8563 32.7957 16.2157C31.2427 15.575 29.5787 15.2469 27.8988 15.25C20.8813 15.26 15.1638 20.9812 15.1625 28C15.1613 35.0587 20.8975 40.8112 27.9375 40.8062ZM39.5625 41.88C40.905 43.23 42.2325 44.5937 43.5938 45.92C43.8998 46.2058 44.3056 46.3605 44.7242 46.3509C45.1428 46.3413 45.5411 46.1683 45.8338 45.8687C46.1249 45.5673 46.2845 45.1627 46.2777 44.7437C46.2709 44.3248 46.0982 43.9256 45.7975 43.6337C44.4975 42.3112 43.1725 41.0087 41.8613 39.6975C41.8381 39.6789 41.8105 39.6664 41.7812 39.6612L39.5625 41.88ZM2.875 8.87499H3.17C4.695 8.87499 6.22 8.87499 7.74625 8.87499C8.49625 8.87499 8.7825 8.58749 8.78375 7.82374C8.78375 6.31374 8.78375 4.80416 8.78375 3.29499C8.78375 3.17874 8.77125 3.06249 8.7675 2.97874L2.875 8.87499ZM39.9813 39.11L38.6463 37.7612L37.6463 38.6862L39.0213 40.0612L39.9813 39.11Z" fill="url(#paint0_linear_101_2)"/>
<path d="M21.1251 8.06124C18.6789 8.06124 16.2314 8.07375 13.7851 8.04625C13.4691 8.04032 13.1664 7.9179 12.9351 7.70249C12.5601 7.29874 12.8414 6.63874 13.3976 6.50374C13.581 6.47025 13.7677 6.45809 13.9539 6.46749H28.3539C28.4626 6.46749 28.5726 6.46749 28.6814 6.46749C29.2014 6.50124 29.5239 6.81874 29.5176 7.28374C29.5114 7.74874 29.1851 8.05624 28.6526 8.05749C26.1376 8.06499 23.6251 8.06124 21.1251 8.06124Z" fill="url(#paint1_linear_101_2)"/>
<path d="M21.1538 10.4713C23.6147 10.4713 26.0768 10.4713 28.5401 10.4713C28.9063 10.4713 29.2251 10.535 29.4151 10.88C29.4753 10.9892 29.5089 11.111 29.5131 11.2356C29.5174 11.3602 29.4921 11.4841 29.4395 11.5971C29.3869 11.7101 29.3084 11.8091 29.2103 11.8861C29.1122 11.963 28.9974 12.0158 28.8751 12.04C28.7207 12.0622 28.5646 12.0693 28.4088 12.0613H13.8751C13.8126 12.0613 13.7501 12.0613 13.6876 12.0613C13.1351 12.045 12.7826 11.7363 12.7788 11.2663C12.7751 10.7963 13.1288 10.4738 13.6788 10.4725C15.5176 10.4725 17.3563 10.4725 19.1963 10.4725L21.1538 10.4713Z" fill="url(#paint2_linear_101_2)"/>
<path d="M10.3413 14.4488C12.1038 14.4488 13.8658 14.4488 15.6275 14.4488C15.8142 14.441 16.0012 14.4574 16.1838 14.4975C16.3539 14.5353 16.5046 14.6332 16.6082 14.7733C16.7118 14.9135 16.7613 15.0863 16.7475 15.26C16.7526 15.4256 16.7019 15.5881 16.6035 15.7214C16.5051 15.8547 16.3648 15.9511 16.205 15.995C16.1161 16.0257 16.0228 16.0418 15.9288 16.0425C12.2175 16.0425 8.5075 16.05 4.79625 16.035C4.245 16.035 3.92875 15.6025 4.0175 15.095C4.08625 14.6913 4.3925 14.4575 4.915 14.45C5.695 14.4388 6.475 14.45 7.25375 14.45L10.3413 14.4488Z" fill="url(#paint3_linear_101_2)"/>
<path d="M8.78747 20.0288C7.50997 20.0288 6.23247 20.0288 4.95497 20.0288C4.34372 20.0288 4.00872 19.7463 4.00372 19.2475C3.99872 18.7488 4.34122 18.4413 4.93747 18.44C7.49247 18.44 10.0475 18.44 12.6025 18.44C13.1862 18.44 13.5587 18.755 13.565 19.23C13.5712 19.705 13.2037 20.0263 12.62 20.0275C11.3425 20.0313 10.065 20.0288 8.78747 20.0288Z" fill="url(#paint4_linear_101_2)"/>
<path d="M7.98239 22.4388C8.99364 22.4388 10.0061 22.4388 11.0174 22.4388C11.6086 22.4388 11.9711 22.75 11.9699 23.2288C11.9686 23.7075 11.5949 24.0288 11.0149 24.03C8.99155 24.0367 6.9678 24.0367 4.94364 24.03C4.34489 24.03 4.00364 23.7225 4.00489 23.2263C4.00614 22.73 4.33864 22.4413 4.94739 22.4388C5.95864 22.435 6.96989 22.4388 7.98239 22.4388Z" fill="url(#paint5_linear_101_2)"/>
<path d="M7.97248 34.4063C9.03123 34.4063 10.0887 34.4063 11.1475 34.4063C11.5087 34.4063 11.8212 34.5613 11.8912 34.9188C11.9405 35.1823 11.893 35.4549 11.7575 35.6863C11.6773 35.7776 11.579 35.8512 11.4688 35.9024C11.3586 35.9536 11.239 35.9813 11.1175 35.9838C9.03248 36.005 6.94748 36.0038 4.86748 35.9925C4.33623 35.9925 4.01498 35.6675 4.01123 35.2038C4.01123 34.7175 4.32873 34.4113 4.89748 34.405C5.92373 34.3925 6.95123 34.405 7.97873 34.405L7.97248 34.4063Z" fill="url(#paint6_linear_101_2)"/>
<path d="M7.62503 30.4087C8.50003 30.4087 9.36753 30.4087 10.2388 30.4087C10.83 30.4087 11.1675 30.7237 11.155 31.2287C11.1425 31.71 10.8113 31.9975 10.2388 32C8.46462 32 6.69087 32 4.91753 32C4.32628 32 3.99003 31.6862 4.00253 31.1812C4.01378 30.7 4.34503 30.4125 4.91753 30.4087C5.82253 30.4037 6.72503 30.4087 7.62503 30.4087Z" fill="url(#paint7_linear_101_2)"/>
<path d="M7.53992 28.0062C6.66492 28.0062 5.78992 28.0062 4.91492 28.0062C4.33242 28.0062 4.00867 27.7187 3.99992 27.235C3.99117 26.7512 4.32867 26.4225 4.92617 26.42C6.68867 26.4142 8.45075 26.4142 10.2124 26.42C10.8187 26.42 11.1549 26.7225 11.1512 27.2225C11.1474 27.7225 10.8224 28 10.2062 28C9.31742 28.0112 8.42867 28.0062 7.53992 28.0062Z" fill="url(#paint8_linear_101_2)"/>
<path d="M27.9288 16.8438C30.895 16.8477 33.7383 18.0288 35.8343 20.1276C37.9303 22.2264 39.1076 25.0713 39.1076 28.0375C39.0976 34.1975 34.0626 39.1988 27.8826 39.1875C21.7488 39.1762 16.7476 34.1437 16.7576 27.99C16.7678 25.0327 17.9489 22.1997 20.0424 20.1109C22.1359 18.0221 24.9715 16.8474 27.9288 16.8438V16.8438ZM18.3501 28C18.3521 30.5411 19.3612 32.9778 21.1564 34.7763C22.9516 36.5748 25.3865 37.5884 27.9276 37.595C33.1838 37.6088 37.5138 33.275 37.5113 28.0012C37.4825 25.4793 36.4605 23.0704 34.6669 21.2971C32.8733 19.5239 30.4529 18.5294 27.9307 18.5294C25.4086 18.5294 22.9881 19.5239 21.1945 21.2971C19.401 23.0704 18.3789 25.4793 18.3501 28.0012V28Z" fill="url(#paint9_linear_101_2)"/>
<path d="M28.7262 20.82C28.7297 20.9216 28.713 21.0229 28.6771 21.1179C28.6412 21.213 28.5868 21.3001 28.5171 21.374C28.4473 21.4479 28.3636 21.5073 28.2708 21.5487C28.1779 21.59 28.0778 21.6126 27.9762 21.615C26.2012 21.6613 24.6724 22.2713 23.3937 23.515C23.3206 23.5918 23.2322 23.6524 23.1342 23.6929C23.0362 23.7335 22.9308 23.753 22.8248 23.7503C22.7188 23.7476 22.6146 23.7227 22.5188 23.6772C22.423 23.6317 22.3378 23.5667 22.2687 23.4863C22.1974 23.4094 22.1421 23.3192 22.1061 23.2207C22.07 23.1223 22.0539 23.0177 22.0587 22.913C22.0634 22.8083 22.089 22.7056 22.1339 22.6109C22.1787 22.5162 22.242 22.4313 22.32 22.3613C23.8512 20.845 25.7075 20.085 27.8562 20.0425C28.36 20.0275 28.7187 20.375 28.7262 20.82Z" fill="url(#paint10_linear_101_2)"/>
</g>
<defs>
<linearGradient id="paint0_linear_101_2" x1="0" y1="0.0828857" x2="50.9927" y2="3.61436" gradientUnits="userSpaceOnUse">
<stop stop-color="#28B945"/>
<stop offset="1" stop-color="#005611"/>
</linearGradient>
<linearGradient id="paint1_linear_101_2" x1="12.7642" y1="6.46442" x2="24.5029" y2="14.9784" gradientUnits="userSpaceOnUse">
<stop stop-color="#28B945"/>
<stop offset="1" stop-color="#005611"/>
</linearGradient>
<linearGradient id="paint2_linear_101_2" x1="12.7788" y1="10.4713" x2="24.4807" y2="18.9833" gradientUnits="userSpaceOnUse">
<stop stop-color="#28B945"/>
<stop offset="1" stop-color="#005611"/>
</linearGradient>
<linearGradient id="paint3_linear_101_2" x1="4.00269" y1="14.445" x2="14.4499" y2="20.2113" gradientUnits="userSpaceOnUse">
<stop stop-color="#28B945"/>
<stop offset="1" stop-color="#005611"/>
</linearGradient>
<linearGradient id="paint4_linear_101_2" x1="4.00366" y1="18.44" x2="12.7155" y2="22.069" gradientUnits="userSpaceOnUse">
<stop stop-color="#28B945"/>
<stop offset="1" stop-color="#005611"/>
</linearGradient>
<linearGradient id="paint5_linear_101_2" x1="4.00488" y1="22.4371" x2="11.6147" y2="25.064" gradientUnits="userSpaceOnUse">
<stop stop-color="#28B945"/>
<stop offset="1" stop-color="#005611"/>
</linearGradient>
<linearGradient id="paint6_linear_101_2" x1="4.01123" y1="34.3994" x2="11.5743" y2="36.9835" gradientUnits="userSpaceOnUse">
<stop stop-color="#28B945"/>
<stop offset="1" stop-color="#005611"/>
</linearGradient>
<linearGradient id="paint7_linear_101_2" x1="4.0022" y1="30.4065" x2="10.9767" y2="32.5747" gradientUnits="userSpaceOnUse">
<stop stop-color="#28B945"/>
<stop offset="1" stop-color="#005611"/>
</linearGradient>
<linearGradient id="paint8_linear_101_2" x1="3.99976" y1="26.4156" x2="10.9715" y2="28.5848" gradientUnits="userSpaceOnUse">
<stop stop-color="#28B945"/>
<stop offset="1" stop-color="#005611"/>
</linearGradient>
<linearGradient id="paint9_linear_101_2" x1="16.7576" y1="16.8438" x2="40.5412" y2="18.4913" gradientUnits="userSpaceOnUse">
<stop stop-color="#28B945"/>
<stop offset="1" stop-color="#005611"/>
</linearGradient>
<linearGradient id="paint10_linear_101_2" x1="22.0579" y1="20.042" x2="29.0796" y2="20.9165" gradientUnits="userSpaceOnUse">
<stop stop-color="#28B945"/>
<stop offset="1" stop-color="#005611"/>
</linearGradient>
<clipPath id="clip0_101_2">
<rect width="48" height="48" fill="white"/>
</clipPath>
</defs>
</svg>
