<svg width="48" height="48" viewBox="0 0 48 48" fill="none" xmlns="http://www.w3.org/2000/svg">
<path fill-rule="evenodd" clip-rule="evenodd" d="M20.9797 0.119451C19.5771 0.373982 18.0289 1.42642 17.3392 2.59436L17.058 3.07061L16.2611 3.07389C14.9924 3.07904 13.9689 3.38383 13.2835 3.96048C13.0192 4.18295 12.9327 4.19936 12.0251 4.19936C10.8517 4.19936 10.2027 4.35039 9.13931 4.87108C8.52647 5.17126 8.18428 5.42195 7.63734 5.97179C6.41156 7.20404 5.85487 8.60176 5.85487 10.447C5.85487 11.5358 5.95903 11.3999 4.96425 11.6089C4.70644 11.6631 4.09678 11.9005 3.60947 12.1365C2.86415 12.4975 2.59556 12.6942 1.91925 13.3747C1.03359 14.2659 0.588373 15.0037 0.215061 16.1994C0.032342 16.7845 -0.00365802 17.0992 0.000279481 18.0744C0.00440448 19.1035 0.0365607 19.3375 0.264186 19.9962C0.888654 21.8031 2.07459 23.1582 3.70425 23.9269C4.37662 24.244 5.33887 24.5431 5.68706 24.5431C5.84634 24.5431 5.85487 24.8123 5.85487 29.825C5.85487 34.7649 5.86678 35.1535 6.03872 35.8256C6.34415 37.0198 6.74015 37.7094 7.63612 38.6073C8.48925 39.4622 9.09797 39.8409 10.2142 40.2113C10.8698 40.4288 10.8765 40.429 17.0207 40.4597L23.171 40.4905L23.2258 41.4594C23.3965 44.4745 25.4644 46.9341 28.4017 47.616C29.1037 47.779 30.6426 47.757 31.3549 47.5738C32.1632 47.366 33.3382 46.7757 33.9978 46.2462C34.9786 45.4589 35.8405 44.0822 36.1989 42.7306C36.406 41.9497 36.4096 40.361 36.206 39.6111L36.059 39.0698L36.5503 38.5542C37.148 37.9273 37.6642 37.0777 37.9432 36.2619L38.1517 35.6525L38.1772 25.0218C38.2056 13.1309 38.2515 13.9494 37.5547 13.9494C37.3096 13.9494 37.14 14.0117 37.0178 14.1467C36.8451 14.3376 36.8377 14.6864 36.7924 24.9045C36.7456 35.446 36.7451 35.4658 36.5437 35.9567C36.2746 36.6127 35.9238 37.1985 35.6432 37.4605L35.4138 37.6749L35.0274 37.1633C32.7481 34.1442 28.1942 33.7242 25.4082 36.2761C24.7245 36.9025 23.9798 37.944 23.7091 38.6529L23.5481 39.0744L17.6781 39.0736C14.2004 39.0732 11.5597 39.0344 11.1986 38.9784C9.41662 38.7019 7.85812 37.2957 7.40484 35.5555C7.28409 35.0918 7.26112 34.1724 7.26112 29.796V24.5883L8.01084 24.4197C9.25819 24.1394 10.1717 23.6195 11.1556 22.63C12.3422 21.4367 12.8646 20.3886 13.0801 18.7687C13.5138 15.5098 11.1787 12.2306 7.96275 11.5819L7.308 11.4498L7.27875 10.6605C7.22137 9.11579 7.6499 7.93623 8.62106 6.96536C9.414 6.17279 10.6516 5.60964 11.6072 5.60673C11.9553 5.60561 11.9665 5.61536 11.9037 5.86342C11.6067 7.03708 11.6797 8.00064 12.1372 8.94236C12.6634 10.0257 13.8337 10.9128 15.0317 11.1364C15.3397 11.1939 18.1034 11.2306 22.1136 11.2306C29.2464 11.2306 29.2073 11.2331 30.2437 10.708C31.6556 9.99245 32.5832 8.15936 32.3116 6.62111C32.2539 6.29458 32.1789 5.93251 32.1449 5.81654C32.0882 5.62323 32.1136 5.60561 32.4492 5.60561C33.7257 5.60561 35.2963 6.50551 36.0386 7.6623C36.6138 8.55855 36.7215 8.98192 36.783 10.588C36.8478 12.2772 36.9188 12.4494 37.5516 12.4494C38.1293 12.4494 38.1989 12.263 38.1972 10.7175C38.1956 9.22848 38.0653 8.51823 37.634 7.64879C37.0058 6.38289 36.078 5.44342 34.8705 4.85064C33.8648 4.35695 33.188 4.19936 32.0736 4.19936C31.1457 4.19936 31.1432 4.1987 30.5838 3.8252C29.8324 3.32336 29.2526 3.15761 28.0443 3.09901C27.076 3.05195 27.0238 3.03883 26.8784 2.80426C25.9641 1.32883 24.6408 0.403045 23.038 0.117295C22.1578 -0.0396426 21.8547 -0.0392676 20.9797 0.119451ZM23.4213 1.66408C24.4235 2.00889 25.3075 2.80192 25.8188 3.81479C26.0152 4.20376 26.1725 4.39764 26.3163 4.42811C26.4321 4.45258 27.0752 4.48801 27.7455 4.50695C28.7746 4.53592 29.0329 4.57426 29.4053 4.75361C29.9167 4.99989 30.5536 5.65248 30.7685 6.15029C31.0021 6.6917 30.9786 7.71629 30.7205 8.23998C30.4497 8.78964 29.9452 9.2942 29.3955 9.56495L28.9642 9.77748H22.0736C16.6154 9.77748 15.1106 9.75179 14.8347 9.65411C14.3048 9.46642 13.6008 8.78045 13.3522 8.20989C12.7747 6.88398 13.3799 5.33476 14.7042 4.7492C15.0996 4.57436 15.4116 4.52842 16.4955 4.48558C17.2174 4.45708 17.8553 4.40289 17.9133 4.3652C17.9712 4.32761 18.1325 4.06389 18.2718 3.77936C18.6603 2.9852 19.3536 2.2878 20.1419 1.89817C21.2392 1.35592 22.3045 1.27989 23.4213 1.66408ZM21.3041 3.01286C20.1207 3.34604 19.3611 4.36342 19.3569 5.62089C19.3503 7.64561 21.5356 8.94329 23.3182 7.97317C24.4402 7.36239 24.9715 6.02251 24.5927 4.75829C24.2055 3.46595 22.6422 2.63617 21.3041 3.01286ZM22.5387 4.4432C23.5148 4.83376 23.56 6.31051 22.6096 6.76154C22.1677 6.97126 21.8434 6.9587 21.4101 6.71523C20.4892 6.19764 20.5755 4.86217 21.558 4.42548C21.9288 4.26067 22.0897 4.26358 22.5387 4.4432ZM7.72022 12.9685C9.5279 13.3946 10.9946 14.7984 11.5368 16.6212C11.7903 17.4735 11.7568 18.7812 11.4598 19.6308C10.8703 21.3169 9.42497 22.6408 7.72987 23.0472C6.97744 23.2276 5.74125 23.1865 5.00437 22.9568C3.70687 22.5521 2.51381 21.5169 1.91662 20.2775C1.32872 19.0573 1.21612 17.9906 1.54097 16.7203C2.23837 13.9935 4.9875 12.3243 7.72022 12.9685ZM5.1344 14.325C4.71628 14.4935 4.59412 15.1261 4.91737 15.4494C5.0549 15.5869 5.22984 15.6369 5.57362 15.6369H6.04237V18.5005V21.3641L6.27253 21.5942C6.52772 21.8495 6.67378 21.8743 7.01203 21.7203C7.42678 21.5313 7.44862 21.3433 7.44862 17.969V14.7787L7.17459 14.5046C6.91434 14.2444 6.86137 14.2309 6.1199 14.2365C5.69053 14.2398 5.24709 14.2796 5.1344 14.325ZM15.9962 15.76C15.7258 16.048 15.7364 16.4331 16.0225 16.7192L16.2526 16.9494H21.9161C27.5037 16.9494 27.5829 16.9467 27.8266 16.755C28.1362 16.5115 28.1653 16.0098 27.8861 15.7306C27.7027 15.5471 27.5737 15.5431 21.9493 15.5431H16.2001L15.9962 15.76ZM15.9962 19.3225C15.7447 19.5904 15.735 19.9514 15.9715 20.2436L16.1507 20.465L20.0539 20.4914L23.9571 20.5179L24.2437 20.2313C24.4738 20.0011 24.5183 19.8943 24.4698 19.6892C24.4366 19.5487 24.3221 19.36 24.2155 19.2697C24.0376 19.1191 23.699 19.1056 20.1109 19.1056H16.2001L15.9962 19.3225ZM17.3636 23.0475C14.2629 23.4088 11.8122 26.0117 11.6052 29.1634C11.5091 30.6257 12.0094 32.4908 12.553 32.6975C12.864 32.8157 13.2042 32.6859 13.4112 32.37C13.5646 32.1359 13.5608 32.0966 13.3185 31.4005C12.2812 28.4205 13.9442 25.2955 16.9642 24.5498C17.623 24.3871 18.8833 24.408 19.5166 24.592C21.2067 25.0834 22.5052 26.3065 23.0871 27.9554C23.5438 29.2499 23.3678 30.9447 22.648 32.1837C21.7831 33.6726 20.2717 34.6125 18.5469 34.7343C17.3107 34.8215 16.1959 34.5212 15.1922 33.8307C14.6894 33.4848 14.3078 33.4616 14.0274 33.76C13.5275 34.2924 13.8869 34.7886 15.2651 35.4688C17.1858 36.4167 19.1237 36.4094 21.1298 35.4467C21.8687 35.092 22.1385 34.8965 22.7705 34.2575C23.6163 33.4022 24.0402 32.7478 24.3784 31.7755C25.2971 29.1336 24.5215 26.3544 22.3474 24.4986C21.065 23.4039 19.1329 22.8414 17.3636 23.0475ZM17.2687 25.8956C17.0752 25.9646 16.7737 26.1304 16.5987 26.2639C16.2363 26.5404 15.7924 27.3579 15.7924 27.749C15.7924 28.1075 16.094 28.3869 16.481 28.3869C16.828 28.3869 16.9983 28.237 17.2381 27.7202C17.5157 27.1218 18.1612 26.9912 18.6121 27.4421C19.1706 28.0006 18.9991 28.3584 16.6624 31.5107C15.9191 32.5134 15.8477 32.7632 16.2024 33.118C16.4977 33.4133 16.9445 33.47 18.6835 33.433L20.1216 33.4025L20.3476 33.1394C20.624 32.8179 20.6322 32.6116 20.3816 32.293C20.1976 32.0591 20.1455 32.0479 19.1278 32.0226L18.0659 31.9962L18.8975 30.8344C20.1818 29.0396 20.4535 28.3149 20.1925 27.379C20.0328 26.8061 19.2895 26.0398 18.7346 25.8759C18.2402 25.7298 17.7135 25.7369 17.2687 25.8956ZM26.0111 27.1408C25.6972 27.2563 25.5424 27.4851 25.5424 27.8335C25.5424 28.5014 25.3792 28.4806 30.6094 28.4806H35.2597L35.4636 28.2637C35.8002 27.9053 35.7209 27.4366 35.2856 27.2115C35.0633 27.0965 34.305 27.0756 30.5861 27.0818C28.1472 27.0858 26.0885 27.1124 26.0111 27.1408ZM25.7673 30.8556C25.4452 31.1327 25.4292 31.631 25.7347 31.8783C25.9188 32.0275 26.2086 32.0431 28.7835 32.0431C31.5898 32.0431 31.6314 32.0403 31.82 31.8379C32.0804 31.5584 32.064 31.15 31.781 30.867L31.5509 30.6369H28.7862C26.0251 30.6369 26.0212 30.6371 25.7673 30.8556ZM30.9702 36.1247C34.4026 36.9339 36.0797 40.9972 34.1832 43.9092C33.5003 44.9579 32.5332 45.7107 31.3549 46.111C30.5213 46.3942 29.1324 46.3969 28.2544 46.1171C26.1407 45.4438 24.5981 43.3405 24.6065 41.143C24.6153 38.824 26.322 36.6809 28.5987 36.13C29.3307 35.953 30.2327 35.9509 30.9702 36.1247ZM29.3392 37.4745C28.6628 37.6391 28.0109 38.1886 27.7503 38.8135C27.5427 39.3112 27.5693 39.6098 27.8454 39.886C28.038 40.0785 28.1438 40.115 28.3756 40.0687C28.7532 39.9931 28.8925 39.8698 28.9631 39.5484C29.1456 38.7175 30.2847 38.5827 30.6043 39.3543C30.8549 39.9592 30.5375 40.3735 29.6207 40.6382C28.8253 40.8679 29.1067 41.9806 29.9602 41.9806C30.2618 41.9806 30.6986 42.4797 30.6986 42.8244C30.6986 43.0261 30.6116 43.207 30.4246 43.3941C29.8806 43.9381 29.1178 43.6612 28.9702 42.8659C28.8764 42.361 28.6804 42.1681 28.2611 42.1681C27.7935 42.1681 27.6049 42.3935 27.6049 42.952C27.6049 43.7745 28.0762 44.4844 28.8667 44.8525C30.6965 45.7045 32.6309 43.9638 31.9618 42.0673C31.8831 41.8443 31.7498 41.5857 31.6658 41.4928C31.5234 41.3355 31.5316 41.29 31.7848 40.8319C32.0131 40.4188 32.0564 40.2348 32.0546 39.6837C32.0511 38.6048 31.4796 37.8258 30.4706 37.5248C29.9734 37.3765 29.7779 37.3677 29.3392 37.4745ZM38.512 38.9399C38.318 39.134 38.2825 39.2382 38.329 39.479C38.454 40.126 38.297 40.1056 43.1351 40.1056H47.4884L47.7185 39.8755C47.845 39.7489 47.9486 39.5361 47.9486 39.4025C47.9486 39.2689 47.845 39.0561 47.7185 38.9295L47.4884 38.6994H43.1205H38.7526L38.512 38.9399ZM38.5225 42.492C38.2672 42.7472 38.2424 42.8933 38.3964 43.2315C38.5801 43.6345 38.8113 43.6681 41.3948 43.6681H43.8322L44.0622 43.438C44.3575 43.1427 44.3631 42.736 44.0754 42.4657C43.8636 42.2667 43.7976 42.2619 41.3055 42.2619H38.7526L38.5225 42.492Z" fill="url(#paint0_linear_63_11)"/>
<defs>
<linearGradient id="paint0_linear_63_11" x1="0" y1="0" x2="51.0222" y2="3.54988" gradientUnits="userSpaceOnUse">
<stop stop-color="#28B945"/>
<stop offset="1" stop-color="#005611"/>
</linearGradient>
</defs>
</svg>
